<?xml version="1.0" encoding="utf-8" standalone="no"?>
<!DOCTYPE svg PUBLIC "-//W3C//DTD SVG 1.1//EN"
  "http://www.w3.org/Graphics/SVG/1.1/DTD/svg11.dtd">
<svg xmlns:xlink="http://www.w3.org/1999/xlink" width="771.84pt" height="590.76pt" viewBox="0 0 771.84 590.76" xmlns="http://www.w3.org/2000/svg" version="1.1">
 <metadata>
  <rdf:RDF xmlns:dc="http://purl.org/dc/elements/1.1/" xmlns:cc="http://creativecommons.org/ns#" xmlns:rdf="http://www.w3.org/1999/02/22-rdf-syntax-ns#">
   <cc:Work>
    <dc:type rdf:resource="http://purl.org/dc/dcmitype/StillImage"/>
    <dc:date>2022-11-26T22:45:11.363384</dc:date>
    <dc:format>image/svg+xml</dc:format>
    <dc:creator>
     <cc:Agent>
      <dc:title>Matplotlib v3.6.1, https://matplotlib.org/</dc:title>
     </cc:Agent>
    </dc:creator>
   </cc:Work>
  </rdf:RDF>
 </metadata>
 <defs>
  <style type="text/css">*{stroke-linejoin: round; stroke-linecap: butt}</style>
 </defs>
 <g id="figure_1">
  <g id="patch_1">
   <path d="M 0 590.76 
L 771.84 590.76 
L 771.84 0 
L 0 0 
z
" style="fill: #ffffff"/>
  </g>
  <g id="axes_1">
   <g id="patch_2">
    <path d="M 96.48 531.684 
L 694.656 531.684 
L 694.656 59.076 
L 96.48 59.076 
z
" style="fill: #ffffff"/>
   </g>
   <g id="patch_3">
    <path d="M 102.70103 336.19167 
L 126.14953 336.19167 
L 126.14953 225.70314 
L 102.70103 225.70314 
L 102.70103 336.19167 
z
" clip-path="url(#p7641cb2f65)" style="fill: #286d88; stroke: #353535; stroke-linejoin: miter"/>
   </g>
   <g id="patch_4">
    <path d="M 126.62807 334.411185 
L 150.07657 334.411185 
L 150.07657 225.75237 
L 126.62807 225.75237 
L 126.62807 334.411185 
z
" clip-path="url(#p7641cb2f65)" style="fill: #d86666; stroke: #353535; stroke-linejoin: miter"/>
   </g>
   <g id="patch_5">
    <path d="M 162.51863 301.968615 
L 185.96713 301.968615 
L 185.96713 241.235205 
L 162.51863 241.235205 
L 162.51863 301.968615 
z
" clip-path="url(#p7641cb2f65)" style="fill: #286d88; stroke: #353535; stroke-linejoin: miter"/>
   </g>
   <g id="patch_6">
    <path d="M 186.44567 292.073385 
L 209.89417 292.073385 
L 209.89417 200.3661 
L 186.44567 200.3661 
L 186.44567 292.073385 
z
" clip-path="url(#p7641cb2f65)" style="fill: #d86666; stroke: #353535; stroke-linejoin: miter"/>
   </g>
   <g id="patch_7">
    <path d="M 222.33623 501.29268 
L 245.78473 501.29268 
L 245.78473 466.27374 
L 222.33623 466.27374 
L 222.33623 501.29268 
z
" clip-path="url(#p7641cb2f65)" style="fill: #286d88; stroke: #353535; stroke-linejoin: miter"/>
   </g>
   <g id="patch_8">
    <path d="M 246.26327 495.885585 
L 269.71177 495.885585 
L 269.71177 451.480125 
L 246.26327 451.480125 
L 246.26327 495.885585 
z
" clip-path="url(#p7641cb2f65)" style="fill: #d86666; stroke: #353535; stroke-linejoin: miter"/>
   </g>
   <g id="patch_9">
    <path d="M 282.15383 335.083995 
L 305.60233 335.083995 
L 305.60233 225.21084 
L 282.15383 225.21084 
L 282.15383 335.083995 
z
" clip-path="url(#p7641cb2f65)" style="fill: #286d88; stroke: #353535; stroke-linejoin: miter"/>
   </g>
   <g id="patch_10">
    <path d="M 306.08087 336.02757 
L 329.52937 336.02757 
L 329.52937 232.964565 
L 306.08087 232.964565 
L 306.08087 336.02757 
z
" clip-path="url(#p7641cb2f65)" style="fill: #d86666; stroke: #353535; stroke-linejoin: miter"/>
   </g>
   <g id="patch_11">
    <path d="M 341.97143 462.97533 
L 365.41993 462.97533 
L 365.41993 424.57593 
L 341.97143 424.57593 
L 341.97143 462.97533 
z
" clip-path="url(#p7641cb2f65)" style="fill: #286d88; stroke: #353535; stroke-linejoin: miter"/>
   </g>
   <g id="patch_12">
    <path d="M 365.89847 460.25127 
L 389.34697 460.25127 
L 389.34697 416.71554 
L 365.89847 416.71554 
L 365.89847 460.25127 
z
" clip-path="url(#p7641cb2f65)" style="fill: #d86666; stroke: #353535; stroke-linejoin: miter"/>
   </g>
   <g id="patch_13">
    <path d="M 401.78903 483.37296 
L 425.23753 483.37296 
L 425.23753 466.495275 
L 401.78903 466.495275 
L 401.78903 483.37296 
z
" clip-path="url(#p7641cb2f65)" style="fill: #286d88; stroke: #353535; stroke-linejoin: miter"/>
   </g>
   <g id="patch_14">
    <path d="M 425.71607 478.76175 
L 449.16457 478.76175 
L 449.16457 459.75897 
L 425.71607 459.75897 
L 425.71607 478.76175 
z
" clip-path="url(#p7641cb2f65)" style="fill: #d86666; stroke: #353535; stroke-linejoin: miter"/>
   </g>
   <g id="patch_15">
    <path d="M 461.60663 503.286495 
L 485.05513 503.286495 
L 485.05513 495.18816 
L 461.60663 495.18816 
L 461.60663 503.286495 
z
" clip-path="url(#p7641cb2f65)" style="fill: #286d88; stroke: #353535; stroke-linejoin: miter"/>
   </g>
   <g id="patch_16">
    <path d="M 485.53367 501.40755 
L 508.98217 501.40755 
L 508.98217 491.34822 
L 485.53367 491.34822 
L 485.53367 501.40755 
z
" clip-path="url(#p7641cb2f65)" style="fill: #d86666; stroke: #353535; stroke-linejoin: miter"/>
   </g>
   <g id="patch_17">
    <path d="M 521.42423 241.44033 
L 544.87273 241.44033 
L 544.87273 171.443475 
L 521.42423 171.443475 
L 521.42423 241.44033 
z
" clip-path="url(#p7641cb2f65)" style="fill: #286d88; stroke: #353535; stroke-linejoin: miter"/>
   </g>
   <g id="patch_18">
    <path d="M 545.35127 226.31031 
L 568.79977 226.31031 
L 568.79977 171.17271 
L 545.35127 171.17271 
L 545.35127 226.31031 
z
" clip-path="url(#p7641cb2f65)" style="fill: #d86666; stroke: #353535; stroke-linejoin: miter"/>
   </g>
   <g id="patch_19">
    <path d="M 581.24183 414.31968 
L 604.69033 414.31968 
L 604.69033 337.68498 
L 581.24183 337.68498 
L 581.24183 414.31968 
z
" clip-path="url(#p7641cb2f65)" style="fill: #286d88; stroke: #353535; stroke-linejoin: miter"/>
   </g>
   <g id="patch_20">
    <path d="M 605.16887 416.00991 
L 628.61737 416.00991 
L 628.61737 345.077685 
L 605.16887 345.077685 
L 605.16887 416.00991 
z
" clip-path="url(#p7641cb2f65)" style="fill: #d86666; stroke: #353535; stroke-linejoin: miter"/>
   </g>
   <g id="patch_21">
    <path d="M 641.05943 371.678295 
L 664.50793 371.678295 
L 664.50793 326.37849 
L 641.05943 326.37849 
L 641.05943 371.678295 
z
" clip-path="url(#p7641cb2f65)" style="fill: #286d88; stroke: #353535; stroke-linejoin: miter"/>
   </g>
   <g id="patch_22">
    <path d="M 664.98647 383.56734 
L 688.43497 383.56734 
L 688.43497 314.194065 
L 664.98647 314.194065 
L 664.98647 383.56734 
z
" clip-path="url(#p7641cb2f65)" style="fill: #d86666; stroke: #353535; stroke-linejoin: miter"/>
   </g>
   <g id="patch_23">
    <path d="M 126.3888 531.684 
L 126.3888 531.684 
L 126.3888 531.684 
L 126.3888 531.684 
z
" clip-path="url(#p7641cb2f65)" style="fill: #286d88; stroke: #353535; stroke-width: 0.5; stroke-linejoin: miter"/>
   </g>
   <g id="patch_24">
    <path d="M 126.3888 531.684 
L 126.3888 531.684 
L 126.3888 531.684 
L 126.3888 531.684 
z
" clip-path="url(#p7641cb2f65)" style="fill: #d86666; stroke: #353535; stroke-width: 0.5; stroke-linejoin: miter"/>
   </g>
   <g id="line2d_1">
    <path d="M 114.42528 336.19167 
L 114.42528 425.54412 
" clip-path="url(#p7641cb2f65)" style="fill: none; stroke: #353535; stroke-linecap: square"/>
   </g>
   <g id="line2d_2">
    <path d="M 114.42528 225.70314 
L 114.42528 92.0601 
" clip-path="url(#p7641cb2f65)" style="fill: none; stroke: #353535; stroke-linecap: square"/>
   </g>
   <g id="line2d_3">
    <path d="M 108.563155 425.54412 
L 120.287405 425.54412 
" clip-path="url(#p7641cb2f65)" style="fill: none; stroke: #353535; stroke-linecap: square"/>
   </g>
   <g id="line2d_4">
    <path d="M 108.563155 92.0601 
L 120.287405 92.0601 
" clip-path="url(#p7641cb2f65)" style="fill: none; stroke: #353535; stroke-linecap: square"/>
   </g>
   <g id="line2d_5">
    <path d="M 138.35232 334.411185 
L 138.35232 403.29216 
" clip-path="url(#p7641cb2f65)" style="fill: none; stroke: #353535; stroke-linecap: square"/>
   </g>
   <g id="line2d_6">
    <path d="M 138.35232 225.75237 
L 138.35232 76.10958 
" clip-path="url(#p7641cb2f65)" style="fill: none; stroke: #353535; stroke-linecap: square"/>
   </g>
   <g id="line2d_7">
    <path d="M 132.490195 403.29216 
L 144.214445 403.29216 
" clip-path="url(#p7641cb2f65)" style="fill: none; stroke: #353535; stroke-linecap: square"/>
   </g>
   <g id="line2d_8">
    <path d="M 132.490195 76.10958 
L 144.214445 76.10958 
" clip-path="url(#p7641cb2f65)" style="fill: none; stroke: #353535; stroke-linecap: square"/>
   </g>
   <g id="line2d_9">
    <path d="M 174.24288 301.968615 
L 174.24288 387.01344 
" clip-path="url(#p7641cb2f65)" style="fill: none; stroke: #353535; stroke-linecap: square"/>
   </g>
   <g id="line2d_10">
    <path d="M 174.24288 241.235205 
L 174.24288 157.3719 
" clip-path="url(#p7641cb2f65)" style="fill: none; stroke: #353535; stroke-linecap: square"/>
   </g>
   <g id="line2d_11">
    <path d="M 168.380755 387.01344 
L 180.105005 387.01344 
" clip-path="url(#p7641cb2f65)" style="fill: none; stroke: #353535; stroke-linecap: square"/>
   </g>
   <g id="line2d_12">
    <path d="M 168.380755 157.3719 
L 180.105005 157.3719 
" clip-path="url(#p7641cb2f65)" style="fill: none; stroke: #353535; stroke-linecap: square"/>
   </g>
   <g id="line2d_13">
    <path d="M 198.16992 292.073385 
L 198.16992 368.4045 
" clip-path="url(#p7641cb2f65)" style="fill: none; stroke: #353535; stroke-linecap: square"/>
   </g>
   <g id="line2d_14">
    <path d="M 198.16992 200.3661 
L 198.16992 126.6852 
" clip-path="url(#p7641cb2f65)" style="fill: none; stroke: #353535; stroke-linecap: square"/>
   </g>
   <g id="line2d_15">
    <path d="M 192.307795 368.4045 
L 204.032045 368.4045 
" clip-path="url(#p7641cb2f65)" style="fill: none; stroke: #353535; stroke-linecap: square"/>
   </g>
   <g id="line2d_16">
    <path d="M 192.307795 126.6852 
L 204.032045 126.6852 
" clip-path="url(#p7641cb2f65)" style="fill: none; stroke: #353535; stroke-linecap: square"/>
   </g>
   <g id="line2d_17">
    <path d="M 234.06048 501.29268 
L 234.06048 515.40528 
" clip-path="url(#p7641cb2f65)" style="fill: none; stroke: #353535; stroke-linecap: square"/>
   </g>
   <g id="line2d_18">
    <path d="M 234.06048 466.27374 
L 234.06048 418.38936 
" clip-path="url(#p7641cb2f65)" style="fill: none; stroke: #353535; stroke-linecap: square"/>
   </g>
   <g id="line2d_19">
    <path d="M 228.198355 515.40528 
L 239.922605 515.40528 
" clip-path="url(#p7641cb2f65)" style="fill: none; stroke: #353535; stroke-linecap: square"/>
   </g>
   <g id="line2d_20">
    <path d="M 228.198355 418.38936 
L 239.922605 418.38936 
" clip-path="url(#p7641cb2f65)" style="fill: none; stroke: #353535; stroke-linecap: square"/>
   </g>
   <g id="line2d_21">
    <path d="M 257.98752 495.885585 
L 257.98752 514.65042 
" clip-path="url(#p7641cb2f65)" style="fill: none; stroke: #353535; stroke-linecap: square"/>
   </g>
   <g id="line2d_22">
    <path d="M 257.98752 451.480125 
L 257.98752 386.25858 
" clip-path="url(#p7641cb2f65)" style="fill: none; stroke: #353535; stroke-linecap: square"/>
   </g>
   <g id="line2d_23">
    <path d="M 252.125395 514.65042 
L 263.849645 514.65042 
" clip-path="url(#p7641cb2f65)" style="fill: none; stroke: #353535; stroke-linecap: square"/>
   </g>
   <g id="line2d_24">
    <path d="M 252.125395 386.25858 
L 263.849645 386.25858 
" clip-path="url(#p7641cb2f65)" style="fill: none; stroke: #353535; stroke-linecap: square"/>
   </g>
   <g id="line2d_25">
    <path d="M 293.87808 335.083995 
L 293.87808 425.77386 
" clip-path="url(#p7641cb2f65)" style="fill: none; stroke: #353535; stroke-linecap: square"/>
   </g>
   <g id="line2d_26">
    <path d="M 293.87808 225.21084 
L 293.87808 94.22622 
" clip-path="url(#p7641cb2f65)" style="fill: none; stroke: #353535; stroke-linecap: square"/>
   </g>
   <g id="line2d_27">
    <path d="M 288.015955 425.77386 
L 299.740205 425.77386 
" clip-path="url(#p7641cb2f65)" style="fill: none; stroke: #353535; stroke-linecap: square"/>
   </g>
   <g id="line2d_28">
    <path d="M 288.015955 94.22622 
L 299.740205 94.22622 
" clip-path="url(#p7641cb2f65)" style="fill: none; stroke: #353535; stroke-linecap: square"/>
   </g>
   <g id="line2d_29">
    <path d="M 317.80512 336.02757 
L 317.80512 415.10736 
" clip-path="url(#p7641cb2f65)" style="fill: none; stroke: #353535; stroke-linecap: square"/>
   </g>
   <g id="line2d_30">
    <path d="M 317.80512 232.964565 
L 317.80512 150.18432 
" clip-path="url(#p7641cb2f65)" style="fill: none; stroke: #353535; stroke-linecap: square"/>
   </g>
   <g id="line2d_31">
    <path d="M 311.942995 415.10736 
L 323.667245 415.10736 
" clip-path="url(#p7641cb2f65)" style="fill: none; stroke: #353535; stroke-linecap: square"/>
   </g>
   <g id="line2d_32">
    <path d="M 311.942995 150.18432 
L 323.667245 150.18432 
" clip-path="url(#p7641cb2f65)" style="fill: none; stroke: #353535; stroke-linecap: square"/>
   </g>
   <g id="line2d_33">
    <path d="M 353.69568 462.97533 
L 353.69568 486.52368 
" clip-path="url(#p7641cb2f65)" style="fill: none; stroke: #353535; stroke-linecap: square"/>
   </g>
   <g id="line2d_34">
    <path d="M 353.69568 424.57593 
L 353.69568 370.40652 
" clip-path="url(#p7641cb2f65)" style="fill: none; stroke: #353535; stroke-linecap: square"/>
   </g>
   <g id="line2d_35">
    <path d="M 347.833555 486.52368 
L 359.557805 486.52368 
" clip-path="url(#p7641cb2f65)" style="fill: none; stroke: #353535; stroke-linecap: square"/>
   </g>
   <g id="line2d_36">
    <path d="M 347.833555 370.40652 
L 359.557805 370.40652 
" clip-path="url(#p7641cb2f65)" style="fill: none; stroke: #353535; stroke-linecap: square"/>
   </g>
   <g id="line2d_37">
    <path d="M 377.62272 460.25127 
L 377.62272 484.06218 
" clip-path="url(#p7641cb2f65)" style="fill: none; stroke: #353535; stroke-linecap: square"/>
   </g>
   <g id="line2d_38">
    <path d="M 377.62272 416.71554 
L 377.62272 377.69256 
" clip-path="url(#p7641cb2f65)" style="fill: none; stroke: #353535; stroke-linecap: square"/>
   </g>
   <g id="line2d_39">
    <path d="M 371.760595 484.06218 
L 383.484845 484.06218 
" clip-path="url(#p7641cb2f65)" style="fill: none; stroke: #353535; stroke-linecap: square"/>
   </g>
   <g id="line2d_40">
    <path d="M 371.760595 377.69256 
L 383.484845 377.69256 
" clip-path="url(#p7641cb2f65)" style="fill: none; stroke: #353535; stroke-linecap: square"/>
   </g>
   <g id="line2d_41">
    <path d="M 413.51328 483.37296 
L 413.51328 501.09576 
" clip-path="url(#p7641cb2f65)" style="fill: none; stroke: #353535; stroke-linecap: square"/>
   </g>
   <g id="line2d_42">
    <path d="M 413.51328 466.495275 
L 413.51328 442.01976 
" clip-path="url(#p7641cb2f65)" style="fill: none; stroke: #353535; stroke-linecap: square"/>
   </g>
   <g id="line2d_43">
    <path d="M 407.651155 501.09576 
L 419.375405 501.09576 
" clip-path="url(#p7641cb2f65)" style="fill: none; stroke: #353535; stroke-linecap: square"/>
   </g>
   <g id="line2d_44">
    <path d="M 407.651155 442.01976 
L 419.375405 442.01976 
" clip-path="url(#p7641cb2f65)" style="fill: none; stroke: #353535; stroke-linecap: square"/>
   </g>
   <g id="line2d_45">
    <path d="M 437.44032 478.76175 
L 437.44032 494.82714 
" clip-path="url(#p7641cb2f65)" style="fill: none; stroke: #353535; stroke-linecap: square"/>
   </g>
   <g id="line2d_46">
    <path d="M 437.44032 459.75897 
L 437.44032 443.79204 
" clip-path="url(#p7641cb2f65)" style="fill: none; stroke: #353535; stroke-linecap: square"/>
   </g>
   <g id="line2d_47">
    <path d="M 431.578195 494.82714 
L 443.302445 494.82714 
" clip-path="url(#p7641cb2f65)" style="fill: none; stroke: #353535; stroke-linecap: square"/>
   </g>
   <g id="line2d_48">
    <path d="M 431.578195 443.79204 
L 443.302445 443.79204 
" clip-path="url(#p7641cb2f65)" style="fill: none; stroke: #353535; stroke-linecap: square"/>
   </g>
   <g id="line2d_49">
    <path d="M 473.33088 503.286495 
L 473.33088 513.43608 
" clip-path="url(#p7641cb2f65)" style="fill: none; stroke: #353535; stroke-linecap: square"/>
   </g>
   <g id="line2d_50">
    <path d="M 473.33088 495.18816 
L 473.33088 484.48884 
" clip-path="url(#p7641cb2f65)" style="fill: none; stroke: #353535; stroke-linecap: square"/>
   </g>
   <g id="line2d_51">
    <path d="M 467.468755 513.43608 
L 479.193005 513.43608 
" clip-path="url(#p7641cb2f65)" style="fill: none; stroke: #353535; stroke-linecap: square"/>
   </g>
   <g id="line2d_52">
    <path d="M 467.468755 484.48884 
L 479.193005 484.48884 
" clip-path="url(#p7641cb2f65)" style="fill: none; stroke: #353535; stroke-linecap: square"/>
   </g>
   <g id="line2d_53">
    <path d="M 497.25792 501.40755 
L 497.25792 513.33762 
" clip-path="url(#p7641cb2f65)" style="fill: none; stroke: #353535; stroke-linecap: square"/>
   </g>
   <g id="line2d_54">
    <path d="M 497.25792 491.34822 
L 497.25792 480.45198 
" clip-path="url(#p7641cb2f65)" style="fill: none; stroke: #353535; stroke-linecap: square"/>
   </g>
   <g id="line2d_55">
    <path d="M 491.395795 513.33762 
L 503.120045 513.33762 
" clip-path="url(#p7641cb2f65)" style="fill: none; stroke: #353535; stroke-linecap: square"/>
   </g>
   <g id="line2d_56">
    <path d="M 491.395795 480.45198 
L 503.120045 480.45198 
" clip-path="url(#p7641cb2f65)" style="fill: none; stroke: #353535; stroke-linecap: square"/>
   </g>
   <g id="line2d_57">
    <path d="M 533.14848 241.44033 
L 533.14848 328.98768 
" clip-path="url(#p7641cb2f65)" style="fill: none; stroke: #353535; stroke-linecap: square"/>
   </g>
   <g id="line2d_58">
    <path d="M 533.14848 171.443475 
L 533.14848 75.02652 
" clip-path="url(#p7641cb2f65)" style="fill: none; stroke: #353535; stroke-linecap: square"/>
   </g>
   <g id="line2d_59">
    <path d="M 527.286355 328.98768 
L 539.010605 328.98768 
" clip-path="url(#p7641cb2f65)" style="fill: none; stroke: #353535; stroke-linecap: square"/>
   </g>
   <g id="line2d_60">
    <path d="M 527.286355 75.02652 
L 539.010605 75.02652 
" clip-path="url(#p7641cb2f65)" style="fill: none; stroke: #353535; stroke-linecap: square"/>
   </g>
   <g id="line2d_61">
    <path d="M 557.07552 226.31031 
L 557.07552 291.57288 
" clip-path="url(#p7641cb2f65)" style="fill: none; stroke: #353535; stroke-linecap: square"/>
   </g>
   <g id="line2d_62">
    <path d="M 557.07552 171.17271 
L 557.07552 110.4393 
" clip-path="url(#p7641cb2f65)" style="fill: none; stroke: #353535; stroke-linecap: square"/>
   </g>
   <g id="line2d_63">
    <path d="M 551.213395 291.57288 
L 562.937645 291.57288 
" clip-path="url(#p7641cb2f65)" style="fill: none; stroke: #353535; stroke-linecap: square"/>
   </g>
   <g id="line2d_64">
    <path d="M 551.213395 110.4393 
L 562.937645 110.4393 
" clip-path="url(#p7641cb2f65)" style="fill: none; stroke: #353535; stroke-linecap: square"/>
   </g>
   <g id="line2d_65">
    <path d="M 592.96608 414.31968 
L 592.96608 459.90666 
" clip-path="url(#p7641cb2f65)" style="fill: none; stroke: #353535; stroke-linecap: square"/>
   </g>
   <g id="line2d_66">
    <path d="M 592.96608 337.68498 
L 592.96608 234.10506 
" clip-path="url(#p7641cb2f65)" style="fill: none; stroke: #353535; stroke-linecap: square"/>
   </g>
   <g id="line2d_67">
    <path d="M 587.103955 459.90666 
L 598.828205 459.90666 
" clip-path="url(#p7641cb2f65)" style="fill: none; stroke: #353535; stroke-linecap: square"/>
   </g>
   <g id="line2d_68">
    <path d="M 587.103955 234.10506 
L 598.828205 234.10506 
" clip-path="url(#p7641cb2f65)" style="fill: none; stroke: #353535; stroke-linecap: square"/>
   </g>
   <g id="line2d_69">
    <path d="M 616.89312 416.00991 
L 616.89312 449.89656 
" clip-path="url(#p7641cb2f65)" style="fill: none; stroke: #353535; stroke-linecap: square"/>
   </g>
   <g id="line2d_70">
    <path d="M 616.89312 345.077685 
L 616.89312 240.27522 
" clip-path="url(#p7641cb2f65)" style="fill: none; stroke: #353535; stroke-linecap: square"/>
   </g>
   <g id="line2d_71">
    <path d="M 611.030995 449.89656 
L 622.755245 449.89656 
" clip-path="url(#p7641cb2f65)" style="fill: none; stroke: #353535; stroke-linecap: square"/>
   </g>
   <g id="line2d_72">
    <path d="M 611.030995 240.27522 
L 622.755245 240.27522 
" clip-path="url(#p7641cb2f65)" style="fill: none; stroke: #353535; stroke-linecap: square"/>
   </g>
   <g id="line2d_73">
    <path d="M 652.78368 371.678295 
L 652.78368 430.23738 
" clip-path="url(#p7641cb2f65)" style="fill: none; stroke: #353535; stroke-linecap: square"/>
   </g>
   <g id="line2d_74">
    <path d="M 652.78368 326.37849 
L 652.78368 259.6062 
" clip-path="url(#p7641cb2f65)" style="fill: none; stroke: #353535; stroke-linecap: square"/>
   </g>
   <g id="line2d_75">
    <path d="M 646.921555 430.23738 
L 658.645805 430.23738 
" clip-path="url(#p7641cb2f65)" style="fill: none; stroke: #353535; stroke-linecap: square"/>
   </g>
   <g id="line2d_76">
    <path d="M 646.921555 259.6062 
L 658.645805 259.6062 
" clip-path="url(#p7641cb2f65)" style="fill: none; stroke: #353535; stroke-linecap: square"/>
   </g>
   <g id="line2d_77">
    <path d="M 676.71072 383.56734 
L 676.71072 442.70898 
" clip-path="url(#p7641cb2f65)" style="fill: none; stroke: #353535; stroke-linecap: square"/>
   </g>
   <g id="line2d_78">
    <path d="M 676.71072 314.194065 
L 676.71072 239.52036 
" clip-path="url(#p7641cb2f65)" style="fill: none; stroke: #353535; stroke-linecap: square"/>
   </g>
   <g id="line2d_79">
    <path d="M 670.848595 442.70898 
L 682.572845 442.70898 
" clip-path="url(#p7641cb2f65)" style="fill: none; stroke: #353535; stroke-linecap: square"/>
   </g>
   <g id="line2d_80">
    <path d="M 670.848595 239.52036 
L 682.572845 239.52036 
" clip-path="url(#p7641cb2f65)" style="fill: none; stroke: #353535; stroke-linecap: square"/>
   </g>
   <g id="line2d_81">
    <path d="M 102.70103 295.19949 
L 126.14953 295.19949 
" clip-path="url(#p7641cb2f65)" style="fill: none; stroke: #353535; stroke-linecap: square"/>
   </g>
   <g id="line2d_82">
    <path d="M 126.62807 310.55925 
L 150.07657 310.55925 
" clip-path="url(#p7641cb2f65)" style="fill: none; stroke: #353535; stroke-linecap: square"/>
   </g>
   <g id="line2d_83">
    <path d="M 162.51863 265.77636 
L 185.96713 265.77636 
" clip-path="url(#p7641cb2f65)" style="fill: none; stroke: #353535; stroke-linecap: square"/>
   </g>
   <g id="line2d_84">
    <path d="M 186.44567 255.249345 
L 209.89417 255.249345 
" clip-path="url(#p7641cb2f65)" style="fill: none; stroke: #353535; stroke-linecap: square"/>
   </g>
   <g id="line2d_85">
    <path d="M 222.33623 484.63653 
L 245.78473 484.63653 
" clip-path="url(#p7641cb2f65)" style="fill: none; stroke: #353535; stroke-linecap: square"/>
   </g>
   <g id="line2d_86">
    <path d="M 246.26327 476.49717 
L 269.71177 476.49717 
" clip-path="url(#p7641cb2f65)" style="fill: none; stroke: #353535; stroke-linecap: square"/>
   </g>
   <g id="line2d_87">
    <path d="M 282.15383 294.14925 
L 305.60233 294.14925 
" clip-path="url(#p7641cb2f65)" style="fill: none; stroke: #353535; stroke-linecap: square"/>
   </g>
   <g id="line2d_88">
    <path d="M 306.08087 314.43201 
L 329.52937 314.43201 
" clip-path="url(#p7641cb2f65)" style="fill: none; stroke: #353535; stroke-linecap: square"/>
   </g>
   <g id="line2d_89">
    <path d="M 341.97143 449.78169 
L 365.41993 449.78169 
" clip-path="url(#p7641cb2f65)" style="fill: none; stroke: #353535; stroke-linecap: square"/>
   </g>
   <g id="line2d_90">
    <path d="M 365.89847 439.67313 
L 389.34697 439.67313 
" clip-path="url(#p7641cb2f65)" style="fill: none; stroke: #353535; stroke-linecap: square"/>
   </g>
   <g id="line2d_91">
    <path d="M 401.78903 474.69207 
L 425.23753 474.69207 
" clip-path="url(#p7641cb2f65)" style="fill: none; stroke: #353535; stroke-linecap: square"/>
   </g>
   <g id="line2d_92">
    <path d="M 425.71607 468.25935 
L 449.16457 468.25935 
" clip-path="url(#p7641cb2f65)" style="fill: none; stroke: #353535; stroke-linecap: square"/>
   </g>
   <g id="line2d_93">
    <path d="M 461.60663 499.83219 
L 485.05513 499.83219 
" clip-path="url(#p7641cb2f65)" style="fill: none; stroke: #353535; stroke-linecap: square"/>
   </g>
   <g id="line2d_94">
    <path d="M 485.53367 496.10712 
L 508.98217 496.10712 
" clip-path="url(#p7641cb2f65)" style="fill: none; stroke: #353535; stroke-linecap: square"/>
   </g>
   <g id="line2d_95">
    <path d="M 521.42423 205.723965 
L 544.87273 205.723965 
" clip-path="url(#p7641cb2f65)" style="fill: none; stroke: #353535; stroke-linecap: square"/>
   </g>
   <g id="line2d_96">
    <path d="M 545.35127 209.29314 
L 568.79977 209.29314 
" clip-path="url(#p7641cb2f65)" style="fill: none; stroke: #353535; stroke-linecap: square"/>
   </g>
   <g id="line2d_97">
    <path d="M 581.24183 386.2914 
L 604.69033 386.2914 
" clip-path="url(#p7641cb2f65)" style="fill: none; stroke: #353535; stroke-linecap: square"/>
   </g>
   <g id="line2d_98">
    <path d="M 605.16887 391.16517 
L 628.61737 391.16517 
" clip-path="url(#p7641cb2f65)" style="fill: none; stroke: #353535; stroke-linecap: square"/>
   </g>
   <g id="line2d_99">
    <path d="M 641.05943 352.86423 
L 664.50793 352.86423 
" clip-path="url(#p7641cb2f65)" style="fill: none; stroke: #353535; stroke-linecap: square"/>
   </g>
   <g id="line2d_100">
    <path d="M 664.98647 348.18738 
L 688.43497 348.18738 
" clip-path="url(#p7641cb2f65)" style="fill: none; stroke: #353535; stroke-linecap: square"/>
   </g>
   <g id="patch_25">
    <path d="M 96.48 531.684 
L 96.48 59.076 
" style="fill: none; stroke: #000000; stroke-linejoin: miter; stroke-linecap: square"/>
   </g>
   <g id="patch_26">
    <path d="M 694.656 531.684 
L 694.656 59.076 
" style="fill: none; stroke: #000000; stroke-linejoin: miter; stroke-linecap: square"/>
   </g>
   <g id="patch_27">
    <path d="M 96.48 531.684 
L 694.656 531.684 
" style="fill: none; stroke: #000000; stroke-linejoin: miter; stroke-linecap: square"/>
   </g>
   <g id="patch_28">
    <path d="M 96.48 59.076 
L 694.656 59.076 
" style="fill: none; stroke: #000000; stroke-linejoin: miter; stroke-linecap: square"/>
   </g>
   <g id="matplotlib.axis_1">
    <g id="xtick_1">
     <g id="line2d_101">
      <defs>
       <path id="m1a66a66dcb" d="M 0 0 
L 0 -4 
" style="stroke: #000000; stroke-width: 0.5"/>
      </defs>
      <g>
       <use xlink:href="#m1a66a66dcb" x="126.3888" y="531.684" style="stroke: #000000; stroke-width: 0.5"/>
      </g>
     </g>
     <g id="line2d_102">
      <defs>
       <path id="mdc34e5d279" d="M 0 0 
L 0 4 
" style="stroke: #000000; stroke-width: 0.5"/>
      </defs>
      <g>
       <use xlink:href="#mdc34e5d279" x="126.3888" y="59.076" style="stroke: #000000; stroke-width: 0.5"/>
      </g>
     </g>
     <g id="text_1">
      <!-- S1 -->
      <g transform="translate(109.26505 555.725875) scale(0.28 -0.28)">
       <defs>
        <path id="ArialMT-53" d="M 288 1472 
L 859 1522 
Q 900 1178 1048 958 
Q 1197 738 1509 602 
Q 1822 466 2213 466 
Q 2559 466 2825 569 
Q 3091 672 3220 851 
Q 3350 1031 3350 1244 
Q 3350 1459 3225 1620 
Q 3100 1781 2813 1891 
Q 2628 1963 1997 2114 
Q 1366 2266 1113 2400 
Q 784 2572 623 2826 
Q 463 3081 463 3397 
Q 463 3744 659 4045 
Q 856 4347 1234 4503 
Q 1613 4659 2075 4659 
Q 2584 4659 2973 4495 
Q 3363 4331 3572 4012 
Q 3781 3694 3797 3291 
L 3216 3247 
Q 3169 3681 2898 3903 
Q 2628 4125 2100 4125 
Q 1550 4125 1298 3923 
Q 1047 3722 1047 3438 
Q 1047 3191 1225 3031 
Q 1400 2872 2139 2705 
Q 2878 2538 3153 2413 
Q 3553 2228 3743 1945 
Q 3934 1663 3934 1294 
Q 3934 928 3725 604 
Q 3516 281 3123 101 
Q 2731 -78 2241 -78 
Q 1619 -78 1198 103 
Q 778 284 539 648 
Q 300 1013 288 1472 
z
" transform="scale(0.015625)"/>
        <path id="ArialMT-31" d="M 2384 0 
L 1822 0 
L 1822 3584 
Q 1619 3391 1289 3197 
Q 959 3003 697 2906 
L 697 3450 
Q 1169 3672 1522 3987 
Q 1875 4303 2022 4600 
L 2384 4600 
L 2384 0 
z
" transform="scale(0.015625)"/>
       </defs>
       <use xlink:href="#ArialMT-53"/>
       <use xlink:href="#ArialMT-31" x="66.699219"/>
      </g>
     </g>
    </g>
    <g id="xtick_2">
     <g id="line2d_103">
      <g>
       <use xlink:href="#m1a66a66dcb" x="186.2064" y="531.684" style="stroke: #000000; stroke-width: 0.5"/>
      </g>
     </g>
     <g id="line2d_104">
      <g>
       <use xlink:href="#mdc34e5d279" x="186.2064" y="59.076" style="stroke: #000000; stroke-width: 0.5"/>
      </g>
     </g>
     <g id="text_2">
      <!-- S2 -->
      <g transform="translate(169.08265 555.725875) scale(0.28 -0.28)">
       <defs>
        <path id="ArialMT-32" d="M 3222 541 
L 3222 0 
L 194 0 
Q 188 203 259 391 
Q 375 700 629 1000 
Q 884 1300 1366 1694 
Q 2113 2306 2375 2664 
Q 2638 3022 2638 3341 
Q 2638 3675 2398 3904 
Q 2159 4134 1775 4134 
Q 1369 4134 1125 3890 
Q 881 3647 878 3216 
L 300 3275 
Q 359 3922 746 4261 
Q 1134 4600 1788 4600 
Q 2447 4600 2831 4234 
Q 3216 3869 3216 3328 
Q 3216 3053 3103 2787 
Q 2991 2522 2730 2228 
Q 2469 1934 1863 1422 
Q 1356 997 1212 845 
Q 1069 694 975 541 
L 3222 541 
z
" transform="scale(0.015625)"/>
       </defs>
       <use xlink:href="#ArialMT-53"/>
       <use xlink:href="#ArialMT-32" x="66.699219"/>
      </g>
     </g>
    </g>
    <g id="xtick_3">
     <g id="line2d_105">
      <g>
       <use xlink:href="#m1a66a66dcb" x="246.024" y="531.684" style="stroke: #000000; stroke-width: 0.5"/>
      </g>
     </g>
     <g id="line2d_106">
      <g>
       <use xlink:href="#mdc34e5d279" x="246.024" y="59.076" style="stroke: #000000; stroke-width: 0.5"/>
      </g>
     </g>
     <g id="text_3">
      <!-- S3 -->
      <g transform="translate(228.90025 555.725875) scale(0.28 -0.28)">
       <defs>
        <path id="ArialMT-33" d="M 269 1209 
L 831 1284 
Q 928 806 1161 595 
Q 1394 384 1728 384 
Q 2125 384 2398 659 
Q 2672 934 2672 1341 
Q 2672 1728 2419 1979 
Q 2166 2231 1775 2231 
Q 1616 2231 1378 2169 
L 1441 2663 
Q 1497 2656 1531 2656 
Q 1891 2656 2178 2843 
Q 2466 3031 2466 3422 
Q 2466 3731 2256 3934 
Q 2047 4138 1716 4138 
Q 1388 4138 1169 3931 
Q 950 3725 888 3313 
L 325 3413 
Q 428 3978 793 4289 
Q 1159 4600 1703 4600 
Q 2078 4600 2393 4439 
Q 2709 4278 2876 4000 
Q 3044 3722 3044 3409 
Q 3044 3113 2884 2869 
Q 2725 2625 2413 2481 
Q 2819 2388 3044 2092 
Q 3269 1797 3269 1353 
Q 3269 753 2831 336 
Q 2394 -81 1725 -81 
Q 1122 -81 723 278 
Q 325 638 269 1209 
z
" transform="scale(0.015625)"/>
       </defs>
       <use xlink:href="#ArialMT-53"/>
       <use xlink:href="#ArialMT-33" x="66.699219"/>
      </g>
     </g>
    </g>
    <g id="xtick_4">
     <g id="line2d_107">
      <g>
       <use xlink:href="#m1a66a66dcb" x="305.8416" y="531.684" style="stroke: #000000; stroke-width: 0.5"/>
      </g>
     </g>
     <g id="line2d_108">
      <g>
       <use xlink:href="#mdc34e5d279" x="305.8416" y="59.076" style="stroke: #000000; stroke-width: 0.5"/>
      </g>
     </g>
     <g id="text_4">
      <!-- S4 -->
      <g transform="translate(288.71785 555.725875) scale(0.28 -0.28)">
       <defs>
        <path id="ArialMT-34" d="M 2069 0 
L 2069 1097 
L 81 1097 
L 81 1613 
L 2172 4581 
L 2631 4581 
L 2631 1613 
L 3250 1613 
L 3250 1097 
L 2631 1097 
L 2631 0 
L 2069 0 
z
M 2069 1613 
L 2069 3678 
L 634 1613 
L 2069 1613 
z
" transform="scale(0.015625)"/>
       </defs>
       <use xlink:href="#ArialMT-53"/>
       <use xlink:href="#ArialMT-34" x="66.699219"/>
      </g>
     </g>
    </g>
    <g id="xtick_5">
     <g id="line2d_109">
      <g>
       <use xlink:href="#m1a66a66dcb" x="365.6592" y="531.684" style="stroke: #000000; stroke-width: 0.5"/>
      </g>
     </g>
     <g id="line2d_110">
      <g>
       <use xlink:href="#mdc34e5d279" x="365.6592" y="59.076" style="stroke: #000000; stroke-width: 0.5"/>
      </g>
     </g>
     <g id="text_5">
      <!-- S5 -->
      <g transform="translate(348.53545 555.725875) scale(0.28 -0.28)">
       <defs>
        <path id="ArialMT-35" d="M 266 1200 
L 856 1250 
Q 922 819 1161 601 
Q 1400 384 1738 384 
Q 2144 384 2425 690 
Q 2706 997 2706 1503 
Q 2706 1984 2436 2262 
Q 2166 2541 1728 2541 
Q 1456 2541 1237 2417 
Q 1019 2294 894 2097 
L 366 2166 
L 809 4519 
L 3088 4519 
L 3088 3981 
L 1259 3981 
L 1013 2750 
Q 1425 3038 1878 3038 
Q 2478 3038 2890 2622 
Q 3303 2206 3303 1553 
Q 3303 931 2941 478 
Q 2500 -78 1738 -78 
Q 1113 -78 717 272 
Q 322 622 266 1200 
z
" transform="scale(0.015625)"/>
       </defs>
       <use xlink:href="#ArialMT-53"/>
       <use xlink:href="#ArialMT-35" x="66.699219"/>
      </g>
     </g>
    </g>
    <g id="xtick_6">
     <g id="line2d_111">
      <g>
       <use xlink:href="#m1a66a66dcb" x="425.4768" y="531.684" style="stroke: #000000; stroke-width: 0.5"/>
      </g>
     </g>
     <g id="line2d_112">
      <g>
       <use xlink:href="#mdc34e5d279" x="425.4768" y="59.076" style="stroke: #000000; stroke-width: 0.5"/>
      </g>
     </g>
     <g id="text_6">
      <!-- S6 -->
      <g transform="translate(408.35305 555.725875) scale(0.28 -0.28)">
       <defs>
        <path id="ArialMT-36" d="M 3184 3459 
L 2625 3416 
Q 2550 3747 2413 3897 
Q 2184 4138 1850 4138 
Q 1581 4138 1378 3988 
Q 1113 3794 959 3422 
Q 806 3050 800 2363 
Q 1003 2672 1297 2822 
Q 1591 2972 1913 2972 
Q 2475 2972 2870 2558 
Q 3266 2144 3266 1488 
Q 3266 1056 3080 686 
Q 2894 316 2569 119 
Q 2244 -78 1831 -78 
Q 1128 -78 684 439 
Q 241 956 241 2144 
Q 241 3472 731 4075 
Q 1159 4600 1884 4600 
Q 2425 4600 2770 4297 
Q 3116 3994 3184 3459 
z
M 888 1484 
Q 888 1194 1011 928 
Q 1134 663 1356 523 
Q 1578 384 1822 384 
Q 2178 384 2434 671 
Q 2691 959 2691 1453 
Q 2691 1928 2437 2201 
Q 2184 2475 1800 2475 
Q 1419 2475 1153 2201 
Q 888 1928 888 1484 
z
" transform="scale(0.015625)"/>
       </defs>
       <use xlink:href="#ArialMT-53"/>
       <use xlink:href="#ArialMT-36" x="66.699219"/>
      </g>
     </g>
    </g>
    <g id="xtick_7">
     <g id="line2d_113">
      <g>
       <use xlink:href="#m1a66a66dcb" x="485.2944" y="531.684" style="stroke: #000000; stroke-width: 0.5"/>
      </g>
     </g>
     <g id="line2d_114">
      <g>
       <use xlink:href="#mdc34e5d279" x="485.2944" y="59.076" style="stroke: #000000; stroke-width: 0.5"/>
      </g>
     </g>
     <g id="text_7">
      <!-- S7 -->
      <g transform="translate(468.17065 555.725875) scale(0.28 -0.28)">
       <defs>
        <path id="ArialMT-37" d="M 303 3981 
L 303 4522 
L 3269 4522 
L 3269 4084 
Q 2831 3619 2401 2847 
Q 1972 2075 1738 1259 
Q 1569 684 1522 0 
L 944 0 
Q 953 541 1156 1306 
Q 1359 2072 1739 2783 
Q 2119 3494 2547 3981 
L 303 3981 
z
" transform="scale(0.015625)"/>
       </defs>
       <use xlink:href="#ArialMT-53"/>
       <use xlink:href="#ArialMT-37" x="66.699219"/>
      </g>
     </g>
    </g>
    <g id="xtick_8">
     <g id="line2d_115">
      <g>
       <use xlink:href="#m1a66a66dcb" x="545.112" y="531.684" style="stroke: #000000; stroke-width: 0.5"/>
      </g>
     </g>
     <g id="line2d_116">
      <g>
       <use xlink:href="#mdc34e5d279" x="545.112" y="59.076" style="stroke: #000000; stroke-width: 0.5"/>
      </g>
     </g>
     <g id="text_8">
      <!-- S8 -->
      <g transform="translate(527.98825 555.725875) scale(0.28 -0.28)">
       <defs>
        <path id="ArialMT-38" d="M 1131 2484 
Q 781 2613 612 2850 
Q 444 3088 444 3419 
Q 444 3919 803 4259 
Q 1163 4600 1759 4600 
Q 2359 4600 2725 4251 
Q 3091 3903 3091 3403 
Q 3091 3084 2923 2848 
Q 2756 2613 2416 2484 
Q 2838 2347 3058 2040 
Q 3278 1734 3278 1309 
Q 3278 722 2862 322 
Q 2447 -78 1769 -78 
Q 1091 -78 675 323 
Q 259 725 259 1325 
Q 259 1772 486 2073 
Q 713 2375 1131 2484 
z
M 1019 3438 
Q 1019 3113 1228 2906 
Q 1438 2700 1772 2700 
Q 2097 2700 2305 2904 
Q 2513 3109 2513 3406 
Q 2513 3716 2298 3927 
Q 2084 4138 1766 4138 
Q 1444 4138 1231 3931 
Q 1019 3725 1019 3438 
z
M 838 1322 
Q 838 1081 952 856 
Q 1066 631 1291 507 
Q 1516 384 1775 384 
Q 2178 384 2440 643 
Q 2703 903 2703 1303 
Q 2703 1709 2433 1975 
Q 2163 2241 1756 2241 
Q 1359 2241 1098 1978 
Q 838 1716 838 1322 
z
" transform="scale(0.015625)"/>
       </defs>
       <use xlink:href="#ArialMT-53"/>
       <use xlink:href="#ArialMT-38" x="66.699219"/>
      </g>
     </g>
    </g>
    <g id="xtick_9">
     <g id="line2d_117">
      <g>
       <use xlink:href="#m1a66a66dcb" x="604.9296" y="531.684" style="stroke: #000000; stroke-width: 0.5"/>
      </g>
     </g>
     <g id="line2d_118">
      <g>
       <use xlink:href="#mdc34e5d279" x="604.9296" y="59.076" style="stroke: #000000; stroke-width: 0.5"/>
      </g>
     </g>
     <g id="text_9">
      <!-- S9 -->
      <g transform="translate(587.80585 555.725875) scale(0.28 -0.28)">
       <defs>
        <path id="ArialMT-39" d="M 350 1059 
L 891 1109 
Q 959 728 1153 556 
Q 1347 384 1650 384 
Q 1909 384 2104 503 
Q 2300 622 2425 820 
Q 2550 1019 2634 1356 
Q 2719 1694 2719 2044 
Q 2719 2081 2716 2156 
Q 2547 1888 2255 1720 
Q 1963 1553 1622 1553 
Q 1053 1553 659 1965 
Q 266 2378 266 3053 
Q 266 3750 677 4175 
Q 1088 4600 1706 4600 
Q 2153 4600 2523 4359 
Q 2894 4119 3086 3673 
Q 3278 3228 3278 2384 
Q 3278 1506 3087 986 
Q 2897 466 2520 194 
Q 2144 -78 1638 -78 
Q 1100 -78 759 220 
Q 419 519 350 1059 
z
M 2653 3081 
Q 2653 3566 2395 3850 
Q 2138 4134 1775 4134 
Q 1400 4134 1122 3828 
Q 844 3522 844 3034 
Q 844 2597 1108 2323 
Q 1372 2050 1759 2050 
Q 2150 2050 2401 2323 
Q 2653 2597 2653 3081 
z
" transform="scale(0.015625)"/>
       </defs>
       <use xlink:href="#ArialMT-53"/>
       <use xlink:href="#ArialMT-39" x="66.699219"/>
      </g>
     </g>
    </g>
    <g id="xtick_10">
     <g id="line2d_119">
      <g>
       <use xlink:href="#m1a66a66dcb" x="664.7472" y="531.684" style="stroke: #000000; stroke-width: 0.5"/>
      </g>
     </g>
     <g id="line2d_120">
      <g>
       <use xlink:href="#mdc34e5d279" x="664.7472" y="59.076" style="stroke: #000000; stroke-width: 0.5"/>
      </g>
     </g>
     <g id="text_10">
      <!-- S10 -->
      <g transform="translate(639.838138 555.725875) scale(0.28 -0.28)">
       <defs>
        <path id="ArialMT-30" d="M 266 2259 
Q 266 3072 433 3567 
Q 600 4063 929 4331 
Q 1259 4600 1759 4600 
Q 2128 4600 2406 4451 
Q 2684 4303 2865 4023 
Q 3047 3744 3150 3342 
Q 3253 2941 3253 2259 
Q 3253 1453 3087 958 
Q 2922 463 2592 192 
Q 2263 -78 1759 -78 
Q 1097 -78 719 397 
Q 266 969 266 2259 
z
M 844 2259 
Q 844 1131 1108 757 
Q 1372 384 1759 384 
Q 2147 384 2411 759 
Q 2675 1134 2675 2259 
Q 2675 3391 2411 3762 
Q 2147 4134 1753 4134 
Q 1366 4134 1134 3806 
Q 844 3388 844 2259 
z
" transform="scale(0.015625)"/>
       </defs>
       <use xlink:href="#ArialMT-53"/>
       <use xlink:href="#ArialMT-31" x="66.699219"/>
       <use xlink:href="#ArialMT-30" x="122.314453"/>
      </g>
     </g>
    </g>
    <g id="text_11">
     <!-- Sensor -->
     <g transform="translate(348.108 586.33275) scale(0.28 -0.28)">
      <defs>
       <path id="Arial-BoldMT-53" d="M 231 1491 
L 1131 1578 
Q 1213 1125 1461 912 
Q 1709 700 2131 700 
Q 2578 700 2804 889 
Q 3031 1078 3031 1331 
Q 3031 1494 2936 1608 
Q 2841 1722 2603 1806 
Q 2441 1863 1863 2006 
Q 1119 2191 819 2459 
Q 397 2838 397 3381 
Q 397 3731 595 4036 
Q 794 4341 1167 4500 
Q 1541 4659 2069 4659 
Q 2931 4659 3367 4281 
Q 3803 3903 3825 3272 
L 2900 3231 
Q 2841 3584 2645 3739 
Q 2450 3894 2059 3894 
Q 1656 3894 1428 3728 
Q 1281 3622 1281 3444 
Q 1281 3281 1419 3166 
Q 1594 3019 2269 2859 
Q 2944 2700 3267 2529 
Q 3591 2359 3773 2064 
Q 3956 1769 3956 1334 
Q 3956 941 3737 597 
Q 3519 253 3119 86 
Q 2719 -81 2122 -81 
Q 1253 -81 787 320 
Q 322 722 231 1491 
z
" transform="scale(0.015625)"/>
       <path id="Arial-BoldMT-65" d="M 2381 1056 
L 3256 909 
Q 3088 428 2723 176 
Q 2359 -75 1813 -75 
Q 947 -75 531 491 
Q 203 944 203 1634 
Q 203 2459 634 2926 
Q 1066 3394 1725 3394 
Q 2466 3394 2894 2905 
Q 3322 2416 3303 1406 
L 1103 1406 
Q 1113 1016 1316 798 
Q 1519 581 1822 581 
Q 2028 581 2168 693 
Q 2309 806 2381 1056 
z
M 2431 1944 
Q 2422 2325 2234 2523 
Q 2047 2722 1778 2722 
Q 1491 2722 1303 2513 
Q 1116 2303 1119 1944 
L 2431 1944 
z
" transform="scale(0.015625)"/>
       <path id="Arial-BoldMT-6e" d="M 3478 0 
L 2600 0 
L 2600 1694 
Q 2600 2231 2544 2389 
Q 2488 2547 2361 2634 
Q 2234 2722 2056 2722 
Q 1828 2722 1647 2597 
Q 1466 2472 1398 2265 
Q 1331 2059 1331 1503 
L 1331 0 
L 453 0 
L 453 3319 
L 1269 3319 
L 1269 2831 
Q 1703 3394 2363 3394 
Q 2653 3394 2893 3289 
Q 3134 3184 3257 3021 
Q 3381 2859 3429 2653 
Q 3478 2447 3478 2063 
L 3478 0 
z
" transform="scale(0.015625)"/>
       <path id="Arial-BoldMT-73" d="M 150 947 
L 1031 1081 
Q 1088 825 1259 692 
Q 1431 559 1741 559 
Q 2081 559 2253 684 
Q 2369 772 2369 919 
Q 2369 1019 2306 1084 
Q 2241 1147 2013 1200 
Q 950 1434 666 1628 
Q 272 1897 272 2375 
Q 272 2806 612 3100 
Q 953 3394 1669 3394 
Q 2350 3394 2681 3172 
Q 3013 2950 3138 2516 
L 2309 2363 
Q 2256 2556 2107 2659 
Q 1959 2763 1684 2763 
Q 1338 2763 1188 2666 
Q 1088 2597 1088 2488 
Q 1088 2394 1175 2328 
Q 1294 2241 1995 2081 
Q 2697 1922 2975 1691 
Q 3250 1456 3250 1038 
Q 3250 581 2869 253 
Q 2488 -75 1741 -75 
Q 1063 -75 667 200 
Q 272 475 150 947 
z
" transform="scale(0.015625)"/>
       <path id="Arial-BoldMT-6f" d="M 256 1706 
Q 256 2144 472 2553 
Q 688 2963 1083 3178 
Q 1478 3394 1966 3394 
Q 2719 3394 3200 2905 
Q 3681 2416 3681 1669 
Q 3681 916 3195 420 
Q 2709 -75 1972 -75 
Q 1516 -75 1102 131 
Q 688 338 472 736 
Q 256 1134 256 1706 
z
M 1156 1659 
Q 1156 1166 1390 903 
Q 1625 641 1969 641 
Q 2313 641 2545 903 
Q 2778 1166 2778 1666 
Q 2778 2153 2545 2415 
Q 2313 2678 1969 2678 
Q 1625 2678 1390 2415 
Q 1156 2153 1156 1659 
z
" transform="scale(0.015625)"/>
       <path id="Arial-BoldMT-72" d="M 1300 0 
L 422 0 
L 422 3319 
L 1238 3319 
L 1238 2847 
Q 1447 3181 1614 3287 
Q 1781 3394 1994 3394 
Q 2294 3394 2572 3228 
L 2300 2463 
Q 2078 2606 1888 2606 
Q 1703 2606 1575 2504 
Q 1447 2403 1373 2137 
Q 1300 1872 1300 1025 
L 1300 0 
z
" transform="scale(0.015625)"/>
      </defs>
      <use xlink:href="#Arial-BoldMT-53"/>
      <use xlink:href="#Arial-BoldMT-65" x="66.699219"/>
      <use xlink:href="#Arial-BoldMT-6e" x="122.314453"/>
      <use xlink:href="#Arial-BoldMT-73" x="183.398438"/>
      <use xlink:href="#Arial-BoldMT-6f" x="239.013672"/>
      <use xlink:href="#Arial-BoldMT-72" x="300.097656"/>
     </g>
    </g>
   </g>
   <g id="matplotlib.axis_2">
    <g id="ytick_1">
     <g id="line2d_121">
      <defs>
       <path id="m8ca167f14f" d="M 0 0 
L 4 0 
" style="stroke: #000000; stroke-width: 0.5"/>
      </defs>
      <g>
       <use xlink:href="#m8ca167f14f" x="96.48" y="531.684" style="stroke: #000000; stroke-width: 0.5"/>
      </g>
     </g>
     <g id="line2d_122">
      <defs>
       <path id="md88520c0b4" d="M 0 0 
L -4 0 
" style="stroke: #000000; stroke-width: 0.5"/>
      </defs>
      <g>
       <use xlink:href="#md88520c0b4" x="694.656" y="531.684" style="stroke: #000000; stroke-width: 0.5"/>
      </g>
     </g>
     <g id="text_12">
      <!-- 0 -->
      <g transform="translate(76.909375 538.922438) scale(0.28 -0.28)">
       <use xlink:href="#ArialMT-30"/>
      </g>
     </g>
    </g>
    <g id="ytick_2">
     <g id="line2d_123">
      <g>
       <use xlink:href="#m8ca167f14f" x="96.48" y="479.172" style="stroke: #000000; stroke-width: 0.5"/>
      </g>
     </g>
     <g id="line2d_124">
      <g>
       <use xlink:href="#md88520c0b4" x="694.656" y="479.172" style="stroke: #000000; stroke-width: 0.5"/>
      </g>
     </g>
     <g id="text_13">
      <!-- 0.2 -->
      <g transform="translate(53.56 486.410438) scale(0.28 -0.28)">
       <defs>
        <path id="ArialMT-2e" d="M 581 0 
L 581 641 
L 1222 641 
L 1222 0 
L 581 0 
z
" transform="scale(0.015625)"/>
       </defs>
       <use xlink:href="#ArialMT-30"/>
       <use xlink:href="#ArialMT-2e" x="55.615234"/>
       <use xlink:href="#ArialMT-32" x="83.398438"/>
      </g>
     </g>
    </g>
    <g id="ytick_3">
     <g id="line2d_125">
      <g>
       <use xlink:href="#m8ca167f14f" x="96.48" y="426.66" style="stroke: #000000; stroke-width: 0.5"/>
      </g>
     </g>
     <g id="line2d_126">
      <g>
       <use xlink:href="#md88520c0b4" x="694.656" y="426.66" style="stroke: #000000; stroke-width: 0.5"/>
      </g>
     </g>
     <g id="text_14">
      <!-- 0.4 -->
      <g transform="translate(53.56 433.898438) scale(0.28 -0.28)">
       <use xlink:href="#ArialMT-30"/>
       <use xlink:href="#ArialMT-2e" x="55.615234"/>
       <use xlink:href="#ArialMT-34" x="83.398438"/>
      </g>
     </g>
    </g>
    <g id="ytick_4">
     <g id="line2d_127">
      <g>
       <use xlink:href="#m8ca167f14f" x="96.48" y="374.148" style="stroke: #000000; stroke-width: 0.5"/>
      </g>
     </g>
     <g id="line2d_128">
      <g>
       <use xlink:href="#md88520c0b4" x="694.656" y="374.148" style="stroke: #000000; stroke-width: 0.5"/>
      </g>
     </g>
     <g id="text_15">
      <!-- 0.6 -->
      <g transform="translate(53.56 381.386437) scale(0.28 -0.28)">
       <use xlink:href="#ArialMT-30"/>
       <use xlink:href="#ArialMT-2e" x="55.615234"/>
       <use xlink:href="#ArialMT-36" x="83.398438"/>
      </g>
     </g>
    </g>
    <g id="ytick_5">
     <g id="line2d_129">
      <g>
       <use xlink:href="#m8ca167f14f" x="96.48" y="321.636" style="stroke: #000000; stroke-width: 0.5"/>
      </g>
     </g>
     <g id="line2d_130">
      <g>
       <use xlink:href="#md88520c0b4" x="694.656" y="321.636" style="stroke: #000000; stroke-width: 0.5"/>
      </g>
     </g>
     <g id="text_16">
      <!-- 0.8 -->
      <g transform="translate(53.56 328.874437) scale(0.28 -0.28)">
       <use xlink:href="#ArialMT-30"/>
       <use xlink:href="#ArialMT-2e" x="55.615234"/>
       <use xlink:href="#ArialMT-38" x="83.398438"/>
      </g>
     </g>
    </g>
    <g id="ytick_6">
     <g id="line2d_131">
      <g>
       <use xlink:href="#m8ca167f14f" x="96.48" y="269.124" style="stroke: #000000; stroke-width: 0.5"/>
      </g>
     </g>
     <g id="line2d_132">
      <g>
       <use xlink:href="#md88520c0b4" x="694.656" y="269.124" style="stroke: #000000; stroke-width: 0.5"/>
      </g>
     </g>
     <g id="text_17">
      <!-- 1 -->
      <g transform="translate(76.909375 276.362437) scale(0.28 -0.28)">
       <use xlink:href="#ArialMT-31"/>
      </g>
     </g>
    </g>
    <g id="ytick_7">
     <g id="line2d_133">
      <g>
       <use xlink:href="#m8ca167f14f" x="96.48" y="216.612" style="stroke: #000000; stroke-width: 0.5"/>
      </g>
     </g>
     <g id="line2d_134">
      <g>
       <use xlink:href="#md88520c0b4" x="694.656" y="216.612" style="stroke: #000000; stroke-width: 0.5"/>
      </g>
     </g>
     <g id="text_18">
      <!-- 1.2 -->
      <g transform="translate(53.56 223.850437) scale(0.28 -0.28)">
       <use xlink:href="#ArialMT-31"/>
       <use xlink:href="#ArialMT-2e" x="55.615234"/>
       <use xlink:href="#ArialMT-32" x="83.398438"/>
      </g>
     </g>
    </g>
    <g id="ytick_8">
     <g id="line2d_135">
      <g>
       <use xlink:href="#m8ca167f14f" x="96.48" y="164.1" style="stroke: #000000; stroke-width: 0.5"/>
      </g>
     </g>
     <g id="line2d_136">
      <g>
       <use xlink:href="#md88520c0b4" x="694.656" y="164.1" style="stroke: #000000; stroke-width: 0.5"/>
      </g>
     </g>
     <g id="text_19">
      <!-- 1.4 -->
      <g transform="translate(53.56 171.338437) scale(0.28 -0.28)">
       <use xlink:href="#ArialMT-31"/>
       <use xlink:href="#ArialMT-2e" x="55.615234"/>
       <use xlink:href="#ArialMT-34" x="83.398438"/>
      </g>
     </g>
    </g>
    <g id="ytick_9">
     <g id="line2d_137">
      <g>
       <use xlink:href="#m8ca167f14f" x="96.48" y="111.588" style="stroke: #000000; stroke-width: 0.5"/>
      </g>
     </g>
     <g id="line2d_138">
      <g>
       <use xlink:href="#md88520c0b4" x="694.656" y="111.588" style="stroke: #000000; stroke-width: 0.5"/>
      </g>
     </g>
     <g id="text_20">
      <!-- 1.6 -->
      <g transform="translate(53.56 118.826437) scale(0.28 -0.28)">
       <use xlink:href="#ArialMT-31"/>
       <use xlink:href="#ArialMT-2e" x="55.615234"/>
       <use xlink:href="#ArialMT-36" x="83.398438"/>
      </g>
     </g>
    </g>
    <g id="ytick_10">
     <g id="line2d_139">
      <g>
       <use xlink:href="#m8ca167f14f" x="96.48" y="59.076" style="stroke: #000000; stroke-width: 0.5"/>
      </g>
     </g>
     <g id="line2d_140">
      <g>
       <use xlink:href="#md88520c0b4" x="694.656" y="59.076" style="stroke: #000000; stroke-width: 0.5"/>
      </g>
     </g>
     <g id="text_21">
      <!-- 1.8 -->
      <g transform="translate(53.56 66.314438) scale(0.28 -0.28)">
       <use xlink:href="#ArialMT-31"/>
       <use xlink:href="#ArialMT-2e" x="55.615234"/>
       <use xlink:href="#ArialMT-38" x="83.398438"/>
      </g>
     </g>
    </g>
    <g id="text_22">
     <!-- Maximum voltage gain (V) -->
     <g transform="translate(42.666875 468.065625) rotate(-90) scale(0.28 -0.28)">
      <defs>
       <path id="Arial-BoldMT-4d" d="M 453 0 
L 453 4581 
L 1838 4581 
L 2669 1456 
L 3491 4581 
L 4878 4581 
L 4878 0 
L 4019 0 
L 4019 3606 
L 3109 0 
L 2219 0 
L 1313 3606 
L 1313 0 
L 453 0 
z
" transform="scale(0.015625)"/>
       <path id="Arial-BoldMT-61" d="M 1116 2306 
L 319 2450 
Q 453 2931 781 3162 
Q 1109 3394 1756 3394 
Q 2344 3394 2631 3255 
Q 2919 3116 3036 2902 
Q 3153 2688 3153 2116 
L 3144 1091 
Q 3144 653 3186 445 
Q 3228 238 3344 0 
L 2475 0 
Q 2441 88 2391 259 
Q 2369 338 2359 363 
Q 2134 144 1878 34 
Q 1622 -75 1331 -75 
Q 819 -75 523 203 
Q 228 481 228 906 
Q 228 1188 362 1408 
Q 497 1628 739 1745 
Q 981 1863 1438 1950 
Q 2053 2066 2291 2166 
L 2291 2253 
Q 2291 2506 2166 2614 
Q 2041 2722 1694 2722 
Q 1459 2722 1328 2630 
Q 1197 2538 1116 2306 
z
M 2291 1594 
Q 2122 1538 1756 1459 
Q 1391 1381 1278 1306 
Q 1106 1184 1106 997 
Q 1106 813 1243 678 
Q 1381 544 1594 544 
Q 1831 544 2047 700 
Q 2206 819 2256 991 
Q 2291 1103 2291 1419 
L 2291 1594 
z
" transform="scale(0.015625)"/>
       <path id="Arial-BoldMT-78" d="M 38 0 
L 1234 1709 
L 88 3319 
L 1159 3319 
L 1747 2406 
L 2366 3319 
L 3397 3319 
L 2272 1747 
L 3500 0 
L 2422 0 
L 1747 1028 
L 1066 0 
L 38 0 
z
" transform="scale(0.015625)"/>
       <path id="Arial-BoldMT-69" d="M 459 3769 
L 459 4581 
L 1338 4581 
L 1338 3769 
L 459 3769 
z
M 459 0 
L 459 3319 
L 1338 3319 
L 1338 0 
L 459 0 
z
" transform="scale(0.015625)"/>
       <path id="Arial-BoldMT-6d" d="M 394 3319 
L 1203 3319 
L 1203 2866 
Q 1638 3394 2238 3394 
Q 2556 3394 2790 3262 
Q 3025 3131 3175 2866 
Q 3394 3131 3647 3262 
Q 3900 3394 4188 3394 
Q 4553 3394 4806 3245 
Q 5059 3097 5184 2809 
Q 5275 2597 5275 2122 
L 5275 0 
L 4397 0 
L 4397 1897 
Q 4397 2391 4306 2534 
Q 4184 2722 3931 2722 
Q 3747 2722 3584 2609 
Q 3422 2497 3350 2280 
Q 3278 2063 3278 1594 
L 3278 0 
L 2400 0 
L 2400 1819 
Q 2400 2303 2353 2443 
Q 2306 2584 2207 2653 
Q 2109 2722 1941 2722 
Q 1738 2722 1575 2612 
Q 1413 2503 1342 2297 
Q 1272 2091 1272 1613 
L 1272 0 
L 394 0 
L 394 3319 
z
" transform="scale(0.015625)"/>
       <path id="Arial-BoldMT-75" d="M 2644 0 
L 2644 497 
Q 2463 231 2167 78 
Q 1872 -75 1544 -75 
Q 1209 -75 943 72 
Q 678 219 559 484 
Q 441 750 441 1219 
L 441 3319 
L 1319 3319 
L 1319 1794 
Q 1319 1094 1367 936 
Q 1416 778 1544 686 
Q 1672 594 1869 594 
Q 2094 594 2272 717 
Q 2450 841 2515 1023 
Q 2581 1206 2581 1919 
L 2581 3319 
L 3459 3319 
L 3459 0 
L 2644 0 
z
" transform="scale(0.015625)"/>
       <path id="Arial-BoldMT-20" transform="scale(0.015625)"/>
       <path id="Arial-BoldMT-76" d="M 1372 0 
L 34 3319 
L 956 3319 
L 1581 1625 
L 1763 1059 
Q 1834 1275 1853 1344 
Q 1897 1484 1947 1625 
L 2578 3319 
L 3481 3319 
L 2163 0 
L 1372 0 
z
" transform="scale(0.015625)"/>
       <path id="Arial-BoldMT-6c" d="M 459 0 
L 459 4581 
L 1338 4581 
L 1338 0 
L 459 0 
z
" transform="scale(0.015625)"/>
       <path id="Arial-BoldMT-74" d="M 1981 3319 
L 1981 2619 
L 1381 2619 
L 1381 1281 
Q 1381 875 1398 808 
Q 1416 741 1477 697 
Q 1538 653 1625 653 
Q 1747 653 1978 738 
L 2053 56 
Q 1747 -75 1359 -75 
Q 1122 -75 931 4 
Q 741 84 652 211 
Q 563 338 528 553 
Q 500 706 500 1172 
L 500 2619 
L 97 2619 
L 97 3319 
L 500 3319 
L 500 3978 
L 1381 4491 
L 1381 3319 
L 1981 3319 
z
" transform="scale(0.015625)"/>
       <path id="Arial-BoldMT-67" d="M 378 -219 
L 1381 -341 
Q 1406 -516 1497 -581 
Q 1622 -675 1891 -675 
Q 2234 -675 2406 -572 
Q 2522 -503 2581 -350 
Q 2622 -241 2622 53 
L 2622 538 
Q 2228 0 1628 0 
Q 959 0 569 566 
Q 263 1013 263 1678 
Q 263 2513 664 2953 
Q 1066 3394 1663 3394 
Q 2278 3394 2678 2853 
L 2678 3319 
L 3500 3319 
L 3500 341 
Q 3500 -247 3403 -537 
Q 3306 -828 3131 -993 
Q 2956 -1159 2664 -1253 
Q 2372 -1347 1925 -1347 
Q 1081 -1347 728 -1058 
Q 375 -769 375 -325 
Q 375 -281 378 -219 
z
M 1163 1728 
Q 1163 1200 1367 954 
Q 1572 709 1872 709 
Q 2194 709 2416 961 
Q 2638 1213 2638 1706 
Q 2638 2222 2425 2472 
Q 2213 2722 1888 2722 
Q 1572 2722 1367 2476 
Q 1163 2231 1163 1728 
z
" transform="scale(0.015625)"/>
       <path id="Arial-BoldMT-28" d="M 1916 -1347 
L 1313 -1347 
Q 834 -625 584 153 
Q 334 931 334 1659 
Q 334 2563 644 3369 
Q 913 4069 1325 4659 
L 1925 4659 
Q 1497 3713 1336 3048 
Q 1175 2384 1175 1641 
Q 1175 1128 1270 590 
Q 1366 53 1531 -431 
Q 1641 -750 1916 -1347 
z
" transform="scale(0.015625)"/>
       <path id="Arial-BoldMT-56" d="M 1634 0 
L -3 4581 
L 1000 4581 
L 2159 1191 
L 3281 4581 
L 4263 4581 
L 2622 0 
L 1634 0 
z
" transform="scale(0.015625)"/>
       <path id="Arial-BoldMT-29" d="M 216 -1347 
Q 475 -791 581 -494 
Q 688 -197 778 190 
Q 869 578 912 926 
Q 956 1275 956 1641 
Q 956 2384 797 3048 
Q 638 3713 209 4659 
L 806 4659 
Q 1278 3988 1539 3234 
Q 1800 2481 1800 1706 
Q 1800 1053 1594 306 
Q 1359 -531 822 -1347 
L 216 -1347 
z
" transform="scale(0.015625)"/>
      </defs>
      <use xlink:href="#Arial-BoldMT-4d"/>
      <use xlink:href="#Arial-BoldMT-61" x="83.300781"/>
      <use xlink:href="#Arial-BoldMT-78" x="138.916016"/>
      <use xlink:href="#Arial-BoldMT-69" x="194.53125"/>
      <use xlink:href="#Arial-BoldMT-6d" x="222.314453"/>
      <use xlink:href="#Arial-BoldMT-75" x="311.230469"/>
      <use xlink:href="#Arial-BoldMT-6d" x="372.314453"/>
      <use xlink:href="#Arial-BoldMT-20" x="461.230469"/>
      <use xlink:href="#Arial-BoldMT-76" x="489.013672"/>
      <use xlink:href="#Arial-BoldMT-6f" x="544.628906"/>
      <use xlink:href="#Arial-BoldMT-6c" x="605.712891"/>
      <use xlink:href="#Arial-BoldMT-74" x="633.496094"/>
      <use xlink:href="#Arial-BoldMT-61" x="666.796875"/>
      <use xlink:href="#Arial-BoldMT-67" x="722.412109"/>
      <use xlink:href="#Arial-BoldMT-65" x="783.496094"/>
      <use xlink:href="#Arial-BoldMT-20" x="839.111328"/>
      <use xlink:href="#Arial-BoldMT-67" x="866.894531"/>
      <use xlink:href="#Arial-BoldMT-61" x="927.978516"/>
      <use xlink:href="#Arial-BoldMT-69" x="983.59375"/>
      <use xlink:href="#Arial-BoldMT-6e" x="1011.376953"/>
      <use xlink:href="#Arial-BoldMT-20" x="1072.460938"/>
      <use xlink:href="#Arial-BoldMT-28" x="1100.244141"/>
      <use xlink:href="#Arial-BoldMT-56" x="1133.544922"/>
      <use xlink:href="#Arial-BoldMT-29" x="1200.244141"/>
     </g>
    </g>
   </g>
   <g id="legend_1">
    <g id="patch_29">
     <path d="M 481.46475 146.1735 
L 677.856 146.1735 
Q 682.656 146.1735 682.656 141.3735 
L 682.656 75.876 
Q 682.656 71.076 677.856 71.076 
L 481.46475 71.076 
Q 476.66475 71.076 476.66475 75.876 
L 476.66475 141.3735 
Q 476.66475 146.1735 481.46475 146.1735 
z
" style="fill: #ffffff; stroke: #000000; stroke-linejoin: miter"/>
    </g>
    <g id="patch_30">
     <path d="M 486.26475 97.85475 
L 534.26475 97.85475 
L 534.26475 81.05475 
L 486.26475 81.05475 
z
" style="fill: #286d88; stroke: #353535; stroke-width: 0.5; stroke-linejoin: miter"/>
    </g>
    <g id="text_23">
     <!-- NEGATIVE -->
     <g transform="translate(553.46475 97.85475) scale(0.24 -0.24)">
      <defs>
       <path id="ArialMT-4e" d="M 488 0 
L 488 4581 
L 1109 4581 
L 3516 984 
L 3516 4581 
L 4097 4581 
L 4097 0 
L 3475 0 
L 1069 3600 
L 1069 0 
L 488 0 
z
" transform="scale(0.015625)"/>
       <path id="ArialMT-45" d="M 506 0 
L 506 4581 
L 3819 4581 
L 3819 4041 
L 1113 4041 
L 1113 2638 
L 3647 2638 
L 3647 2100 
L 1113 2100 
L 1113 541 
L 3925 541 
L 3925 0 
L 506 0 
z
" transform="scale(0.015625)"/>
       <path id="ArialMT-47" d="M 2638 1797 
L 2638 2334 
L 4578 2338 
L 4578 638 
Q 4131 281 3656 101 
Q 3181 -78 2681 -78 
Q 2006 -78 1454 211 
Q 903 500 622 1047 
Q 341 1594 341 2269 
Q 341 2938 620 3517 
Q 900 4097 1425 4378 
Q 1950 4659 2634 4659 
Q 3131 4659 3532 4498 
Q 3934 4338 4162 4050 
Q 4391 3763 4509 3300 
L 3963 3150 
Q 3859 3500 3706 3700 
Q 3553 3900 3268 4020 
Q 2984 4141 2638 4141 
Q 2222 4141 1919 4014 
Q 1616 3888 1430 3681 
Q 1244 3475 1141 3228 
Q 966 2803 966 2306 
Q 966 1694 1177 1281 
Q 1388 869 1791 669 
Q 2194 469 2647 469 
Q 3041 469 3416 620 
Q 3791 772 3984 944 
L 3984 1797 
L 2638 1797 
z
" transform="scale(0.015625)"/>
       <path id="ArialMT-41" d="M -9 0 
L 1750 4581 
L 2403 4581 
L 4278 0 
L 3588 0 
L 3053 1388 
L 1138 1388 
L 634 0 
L -9 0 
z
M 1313 1881 
L 2866 1881 
L 2388 3150 
Q 2169 3728 2063 4100 
Q 1975 3659 1816 3225 
L 1313 1881 
z
" transform="scale(0.015625)"/>
       <path id="ArialMT-54" d="M 1659 0 
L 1659 4041 
L 150 4041 
L 150 4581 
L 3781 4581 
L 3781 4041 
L 2266 4041 
L 2266 0 
L 1659 0 
z
" transform="scale(0.015625)"/>
       <path id="ArialMT-49" d="M 597 0 
L 597 4581 
L 1203 4581 
L 1203 0 
L 597 0 
z
" transform="scale(0.015625)"/>
       <path id="ArialMT-56" d="M 1803 0 
L 28 4581 
L 684 4581 
L 1875 1253 
Q 2019 853 2116 503 
Q 2222 878 2363 1253 
L 3600 4581 
L 4219 4581 
L 2425 0 
L 1803 0 
z
" transform="scale(0.015625)"/>
      </defs>
      <use xlink:href="#ArialMT-4e"/>
      <use xlink:href="#ArialMT-45" x="72.216797"/>
      <use xlink:href="#ArialMT-47" x="138.916016"/>
      <use xlink:href="#ArialMT-41" x="216.699219"/>
      <use xlink:href="#ArialMT-54" x="276.023438"/>
      <use xlink:href="#ArialMT-49" x="337.107422"/>
      <use xlink:href="#ArialMT-56" x="364.890625"/>
      <use xlink:href="#ArialMT-45" x="431.589844"/>
     </g>
    </g>
    <g id="patch_31">
     <path d="M 486.26475 131.8035 
L 534.26475 131.8035 
L 534.26475 115.0035 
L 486.26475 115.0035 
z
" style="fill: #d86666; stroke: #353535; stroke-width: 0.5; stroke-linejoin: miter"/>
    </g>
    <g id="text_24">
     <!-- POSITIVE -->
     <g transform="translate(553.46475 131.8035) scale(0.24 -0.24)">
      <defs>
       <path id="ArialMT-50" d="M 494 0 
L 494 4581 
L 2222 4581 
Q 2678 4581 2919 4538 
Q 3256 4481 3484 4323 
Q 3713 4166 3852 3881 
Q 3991 3597 3991 3256 
Q 3991 2672 3619 2267 
Q 3247 1863 2275 1863 
L 1100 1863 
L 1100 0 
L 494 0 
z
M 1100 2403 
L 2284 2403 
Q 2872 2403 3119 2622 
Q 3366 2841 3366 3238 
Q 3366 3525 3220 3729 
Q 3075 3934 2838 4000 
Q 2684 4041 2272 4041 
L 1100 4041 
L 1100 2403 
z
" transform="scale(0.015625)"/>
       <path id="ArialMT-4f" d="M 309 2231 
Q 309 3372 921 4017 
Q 1534 4663 2503 4663 
Q 3138 4663 3647 4359 
Q 4156 4056 4423 3514 
Q 4691 2972 4691 2284 
Q 4691 1588 4409 1038 
Q 4128 488 3612 205 
Q 3097 -78 2500 -78 
Q 1853 -78 1343 234 
Q 834 547 571 1087 
Q 309 1628 309 2231 
z
M 934 2222 
Q 934 1394 1379 917 
Q 1825 441 2497 441 
Q 3181 441 3623 922 
Q 4066 1403 4066 2288 
Q 4066 2847 3877 3264 
Q 3688 3681 3323 3911 
Q 2959 4141 2506 4141 
Q 1863 4141 1398 3698 
Q 934 3256 934 2222 
z
" transform="scale(0.015625)"/>
      </defs>
      <use xlink:href="#ArialMT-50"/>
      <use xlink:href="#ArialMT-4f" x="66.699219"/>
      <use xlink:href="#ArialMT-53" x="144.482422"/>
      <use xlink:href="#ArialMT-49" x="211.181641"/>
      <use xlink:href="#ArialMT-54" x="238.964844"/>
      <use xlink:href="#ArialMT-49" x="300.048828"/>
      <use xlink:href="#ArialMT-56" x="327.832031"/>
      <use xlink:href="#ArialMT-45" x="394.53125"/>
     </g>
    </g>
   </g>
  </g>
 </g>
 <defs>
  <clipPath id="p7641cb2f65">
   <rect x="96.48" y="59.076" width="598.176" height="472.608"/>
  </clipPath>
 </defs>
</svg>
