<?xml version="1.0" encoding="utf-8" standalone="no"?>
<!DOCTYPE svg PUBLIC "-//W3C//DTD SVG 1.1//EN"
  "http://www.w3.org/Graphics/SVG/1.1/DTD/svg11.dtd">
<svg xmlns:xlink="http://www.w3.org/1999/xlink" width="771.84pt" height="590.76pt" viewBox="0 0 771.84 590.76" xmlns="http://www.w3.org/2000/svg" version="1.1">
 <metadata>
  <rdf:RDF xmlns:dc="http://purl.org/dc/elements/1.1/" xmlns:cc="http://creativecommons.org/ns#" xmlns:rdf="http://www.w3.org/1999/02/22-rdf-syntax-ns#">
   <cc:Work>
    <dc:type rdf:resource="http://purl.org/dc/dcmitype/StillImage"/>
    <dc:date>2022-11-27T23:00:01.813765</dc:date>
    <dc:format>image/svg+xml</dc:format>
    <dc:creator>
     <cc:Agent>
      <dc:title>Matplotlib v3.6.1, https://matplotlib.org/</dc:title>
     </cc:Agent>
    </dc:creator>
   </cc:Work>
  </rdf:RDF>
 </metadata>
 <defs>
  <style type="text/css">*{stroke-linejoin: round; stroke-linecap: butt}</style>
 </defs>
 <g id="figure_1">
  <g id="patch_1">
   <path d="M 0 590.76 
L 771.84 590.76 
L 771.84 0 
L 0 0 
z
" style="fill: #ffffff"/>
  </g>
  <g id="axes_1">
   <g id="patch_2">
    <path d="M 96.48 531.684 
L 694.656 531.684 
L 694.656 59.076 
L 96.48 59.076 
z
" style="fill: #ffffff"/>
   </g>
   <g id="PolyCollection_1">
    <defs>
     <path id="m7abf094e30" d="M 117.286122 -59.076 
L 117.286122 -531.684 
L 533.408557 -531.684 
L 533.408557 -59.076 
L 533.408557 -59.076 
L 117.286122 -59.076 
z
" style="stroke: #f2f2f2; stroke-opacity: 0.7"/>
    </defs>
    <g clip-path="url(#p6c924376a5)">
     <use xlink:href="#m7abf094e30" x="0" y="590.76" style="fill: #f2f2f2; fill-opacity: 0.7; stroke: #f2f2f2; stroke-opacity: 0.7"/>
    </g>
   </g>
   <g id="line2d_1">
    <path d="M 96.48 531.684 
L 103.762143 531.794767 
L 112.084591 531.97938 
L 119.366734 532.090147 
L 126.648877 532.237837 
L 128.729489 532.090147 
L 129.769795 531.905535 
L 131.850407 531.056317 
L 132.890713 530.391712 
L 133.931019 529.505572 
L 134.971325 528.43482 
L 136.011631 527.179455 
L 138.092243 523.967197 
L 140.172856 519.942645 
L 142.253468 515.179642 
L 144.33408 509.67819 
L 146.414692 503.6229 
L 149.53561 493.57998 
L 152.656529 482.761687 
L 158.898365 460.017427 
L 164.099896 441.29772 
L 167.220814 430.553272 
L 170.341732 420.32574 
L 174.502957 407.661322 
L 178.664181 396.10458 
L 181.785099 388.12932 
L 184.906017 380.670975 
L 188.026936 373.729545 
L 191.147854 367.268107 
L 195.309078 359.32977 
L 198.429997 353.828317 
L 202.591221 347.0715 
L 206.752445 340.86852 
L 210.91367 335.145532 
L 214.034588 331.12098 
L 219.236118 324.954922 
L 223.397343 320.376532 
L 229.639179 314.062785 
L 236.921322 307.49058 
L 240.04224 304.869082 
L 245.24377 300.733763 
L 256.687137 292.72158 
L 262.928974 288.807795 
L 274.372341 282.420202 
L 279.573871 279.761782 
L 284.775402 277.287975 
L 292.057544 274.038795 
L 296.218769 272.303437 
L 300.379993 270.641925 
L 307.662136 267.90966 
L 310.783054 266.801985 
L 317.02489 264.697402 
L 331.589176 260.155935 
L 344.072849 256.722142 
L 361.758052 252.439132 
L 380.483562 248.56227 
L 409.612132 243.503887 
L 423.136111 241.47315 
L 427.297336 240.845467 
L 431.45856 240.328553 
L 434.579478 239.885482 
L 443.942233 238.66704 
L 453.304988 237.559365 
L 458.506518 236.931682 
L 496.997843 232.944052 
L 502.199374 232.46406 
L 509.481517 231.799455 
L 519.884577 230.950238 
L 525.086108 230.470245 
L 528.207026 230.24871 
L 545.89223 229.030267 
L 549.013148 229.325647 
L 551.09376 229.842562 
L 552.134066 230.174865 
L 555.254984 231.72561 
L 558.375903 233.904038 
L 561.496821 236.673225 
L 564.617739 239.885482 
L 564.617739 239.885482 
" clip-path="url(#p6c924376a5)" style="fill: none; stroke: #1f77b4; stroke-width: 4; stroke-linecap: square"/>
   </g>
   <g id="line2d_2">
    <path d="M 96.48 531.684 
L 103.762143 531.83169 
L 111.044285 531.942457 
L 116.245816 532.016302 
L 125.60857 531.905535 
L 126.648877 531.610155 
L 127.689183 531.09324 
L 128.729489 530.391712 
L 129.769795 529.46865 
L 130.810101 528.360975 
L 132.890713 525.370252 
L 133.931019 523.524127 
L 134.971325 521.382623 
L 136.011631 518.98266 
L 137.051937 516.250395 
L 139.13255 509.82588 
L 141.213162 502.182922 
L 143.293774 493.57998 
L 146.414692 479.069437 
L 150.575917 457.617465 
L 164.099896 386.984722 
L 168.26112 366.935805 
L 172.422344 348.25302 
L 176.583569 330.862522 
L 179.704487 318.604252 
L 182.825405 307.010587 
L 185.946323 296.081527 
L 189.067242 285.706305 
L 192.18816 275.921843 
L 195.309078 266.691217 
L 198.429997 257.977507 
L 202.591221 247.23306 
L 206.752445 237.300907 
L 209.873363 230.3964 
L 212.994282 223.861117 
L 216.1152 217.731982 
L 219.236118 211.93515 
L 223.397343 204.69834 
L 226.518261 199.603035 
L 230.679485 193.215442 
L 234.84071 187.307842 
L 239.001934 181.843312 
L 242.122852 178.003372 
L 245.24377 174.384968 
L 247.324383 172.05885 
L 251.485607 167.591227 
L 255.646831 163.455907 
L 259.808056 159.615967 
L 265.009586 155.0745 
L 275.412647 147.062318 
L 280.614177 143.480835 
L 284.775402 140.859337 
L 288.936626 138.311685 
L 296.218769 134.287132 
L 308.702442 128.157997 
L 312.863666 126.27495 
L 315.984584 124.94574 
L 322.226421 122.398087 
L 329.508563 119.665822 
L 334.710094 117.893542 
L 340.95193 115.78896 
L 349.274379 113.241307 
L 360.717746 110.065972 
L 363.838664 109.2906 
L 376.322337 106.299877 
L 397.128459 101.979945 
L 418.974887 98.21385 
L 430.418254 96.478492 
L 434.579478 95.85081 
L 438.740703 95.296972 
L 452.264682 93.450848 
L 454.345294 93.229312 
L 461.627437 92.30625 
L 479.31264 90.312435 
L 482.433558 89.980133 
L 512.602435 86.878642 
L 518.844271 86.324805 
L 527.16672 85.549432 
L 533.408557 84.995595 
L 538.610087 84.515602 
L 543.811617 84.441757 
L 545.89223 84.884827 
L 546.932536 85.180207 
L 550.053454 86.620185 
L 553.174372 88.76169 
L 555.254984 90.497048 
L 557.335597 92.490862 
L 559.416209 94.743135 
L 562.537127 98.435385 
L 564.617739 101.16765 
L 564.617739 101.16765 
" clip-path="url(#p6c924376a5)" style="fill: none; stroke: #ff7f0f; stroke-width: 4; stroke-linecap: square"/>
   </g>
   <g id="line2d_3">
    <path d="M 96.48 531.684 
L 122.487652 531.794767 
L 126.648877 531.83169 
L 129.769795 531.647078 
L 131.850407 531.277852 
L 133.931019 530.613247 
L 136.011631 529.727107 
L 139.13255 527.99175 
L 144.33408 524.410267 
L 152.656529 518.281133 
L 158.898365 514.182735 
L 164.099896 511.339702 
L 168.26112 509.38281 
L 176.583569 506.244397 
L 180.744793 505.025955 
L 185.946323 503.659822 
L 195.309078 501.776775 
L 202.591221 500.595255 
L 216.1152 498.786052 
L 257.727443 494.46612 
L 262.928974 493.986127 
L 270.211117 493.321522 
L 277.493259 492.69384 
L 282.69479 492.25077 
L 296.218769 491.180017 
L 301.420299 490.736947 
L 304.541217 490.515412 
L 330.54887 488.55852 
L 333.669788 488.336985 
L 353.435603 487.044697 
L 357.596828 486.78624 
L 375.282031 485.641642 
L 382.564174 485.272417 
L 391.926929 484.71858 
L 398.168765 484.386277 
L 405.450908 483.98013 
L 410.652438 483.721672 
L 412.73305 483.573982 
L 420.015193 483.204757 
L 427.297336 482.79861 
L 435.619784 482.392462 
L 440.821315 482.134005 
L 451.224376 481.654012 
L 455.3856 481.4694 
L 468.909579 480.87864 
L 473.070803 480.694027 
L 495.957537 479.770965 
L 500.118762 479.586352 
L 535.489169 478.22022 
L 540.690699 477.961762 
L 547.972842 478.07253 
L 550.053454 478.441755 
L 552.134066 478.921747 
L 555.254984 479.9925 
L 561.496821 482.761687 
L 564.617739 484.349355 
L 564.617739 484.349355 
" clip-path="url(#p6c924376a5)" style="fill: none; stroke: #2ba02b; stroke-width: 4; stroke-linecap: square"/>
   </g>
   <g id="line2d_4">
    <path d="M 96.48 531.684 
L 103.762143 531.868612 
L 105.842755 531.868612 
L 113.124897 532.016302 
L 118.326428 532.12707 
L 122.487652 532.200915 
L 123.527958 532.053225 
L 124.568264 531.720922 
L 125.60857 531.130162 
L 126.648877 530.317867 
L 127.689183 529.17327 
L 128.729489 527.733292 
L 129.769795 525.997935 
L 130.810101 523.967197 
L 131.850407 521.604157 
L 133.931019 516.02886 
L 136.011631 509.38281 
L 138.092243 501.813697 
L 140.172856 493.57998 
L 144.33408 475.70949 
L 148.495304 457.026705 
L 153.696835 433.728607 
L 158.898365 411.981255 
L 162.019283 399.981442 
L 165.140202 388.793925 
L 168.26112 378.492548 
L 171.382038 369.114232 
L 174.502957 360.474367 
L 177.623875 352.572952 
L 180.744793 345.29922 
L 183.865711 338.579325 
L 188.026936 330.493297 
L 192.18816 323.182642 
L 196.349384 316.573515 
L 199.470303 312.032047 
L 204.671833 305.12754 
L 208.833057 300.179925 
L 214.034588 294.567705 
L 219.236118 289.546245 
L 225.477955 284.118637 
L 229.639179 280.832535 
L 234.84071 277.06644 
L 242.122852 272.266515 
L 248.364689 268.611187 
L 253.566219 265.768155 
L 263.96928 260.709772 
L 268.130504 258.90057 
L 274.372341 256.352917 
L 291.017238 250.556085 
L 298.299381 248.340735 
L 311.82336 244.611562 
L 324.307033 241.62084 
L 338.871318 238.630117 
L 363.838664 234.310185 
L 390.886623 230.581012 
L 425.216723 227.036452 
L 430.418254 226.55646 
L 436.66009 226.002622 
L 448.103457 225.07956 
L 452.264682 224.747257 
L 491.796313 222.051915 
L 498.03815 221.719612 
L 505.320292 221.313465 
L 512.602435 220.94424 
L 523.005496 220.316557 
L 530.287638 219.947333 
L 537.569781 219.541185 
L 540.690699 219.578107 
L 541.731005 219.725797 
L 543.811617 220.316557 
L 545.89223 221.276542 
L 547.972842 222.56883 
L 550.053454 224.19342 
L 552.134066 226.076467 
L 555.254984 229.436415 
L 558.375903 233.20251 
L 562.537127 238.777807 
L 564.617739 241.694685 
L 564.617739 241.694685 
" clip-path="url(#p6c924376a5)" style="fill: none; stroke: #d62727; stroke-width: 4; stroke-linecap: square"/>
   </g>
   <g id="line2d_5">
    <path d="M 96.48 531.684 
L 101.68153 531.757845 
L 124.568264 531.720922 
L 125.60857 531.53631 
L 126.648877 531.204007 
L 127.689183 530.724015 
L 128.729489 529.985565 
L 129.769795 528.988657 
L 130.810101 527.770215 
L 131.850407 526.21947 
L 132.890713 524.44719 
L 134.971325 520.16418 
L 137.051937 515.14272 
L 140.172856 506.650545 
L 150.575917 476.854087 
L 153.696835 468.878827 
L 156.817753 461.67894 
L 159.938671 455.217502 
L 163.05959 449.494515 
L 166.180508 444.436132 
L 169.301426 440.005432 
L 172.422344 436.054725 
L 175.543263 432.620932 
L 178.664181 429.519442 
L 181.785099 426.787177 
L 185.946323 423.648765 
L 189.067242 421.544182 
L 192.18816 419.661135 
L 194.268772 418.479615 
L 197.38969 416.891947 
L 202.591221 414.56583 
L 208.833057 412.239712 
L 212.994282 410.87358 
L 222.357037 408.325927 
L 227.558567 407.144407 
L 234.84071 405.667507 
L 239.001934 404.96598 
L 246.284077 403.78446 
L 254.606525 402.713707 
L 280.614177 400.055287 
L 314.944278 397.72917 
L 319.105503 397.507635 
L 321.186115 397.359945 
L 331.589176 396.879952 
L 338.871318 396.473805 
L 405.450908 394.221532 
L 409.612132 394.110765 
L 423.136111 393.74154 
L 430.418254 393.630772 
L 433.539172 393.520005 
L 439.781009 393.409237 
L 450.18407 393.15078 
L 456.425906 393.040012 
L 468.909579 392.70771 
L 476.191722 392.596942 
L 483.473864 392.449252 
L 485.554477 392.449252 
L 495.957537 392.190795 
L 503.23968 392.080027 
L 511.562129 391.895415 
L 518.844271 391.784648 
L 525.086108 391.67388 
L 534.448863 391.563112 
L 538.610087 391.489267 
L 541.731005 391.747725 
L 543.811617 392.227717 
L 544.851923 392.633865 
L 546.932536 393.88923 
L 547.972842 394.738448 
L 550.053454 396.84303 
L 552.134066 399.464527 
L 554.214678 402.418327 
L 557.335597 407.292097 
L 561.496821 414.27045 
L 564.617739 419.661135 
L 564.617739 419.661135 
" clip-path="url(#p6c924376a5)" style="fill: none; stroke: #9467bd; stroke-width: 4; stroke-linecap: square"/>
   </g>
   <g id="line2d_6">
    <path d="M 96.48 531.684 
L 120.40704 531.647078 
L 121.447346 531.425543 
L 122.487652 530.871705 
L 123.527958 529.727107 
L 124.568264 528.102517 
L 125.60857 525.961012 
L 126.648877 523.339515 
L 128.729489 516.988845 
L 130.810101 509.67819 
L 138.092243 482.577075 
L 141.213162 472.091085 
L 144.33408 462.786615 
L 146.414692 457.174395 
L 149.53561 449.679127 
L 152.656529 443.21769 
L 155.777447 437.716237 
L 157.858059 434.540902 
L 159.938671 431.69787 
L 162.019283 429.150217 
L 164.099896 426.897945 
L 167.220814 423.981067 
L 170.341732 421.544182 
L 173.46265 419.402677 
L 179.704487 415.968885 
L 185.946323 413.421232 
L 195.309078 410.541277 
L 209.873363 407.550555 
L 226.518261 405.298282 
L 235.881016 404.37522 
L 237.961628 404.22753 
L 242.122852 403.895227 
L 267.090198 402.233715 
L 274.372341 401.86449 
L 279.573871 401.606032 
L 289.976932 401.12604 
L 294.138157 400.941427 
L 333.669788 399.64914 
L 337.831012 399.538372 
L 358.637134 398.91069 
L 362.798358 398.836845 
L 365.919277 398.726077 
L 375.282031 398.504542 
L 380.483562 398.393775 
L 388.80601 398.209162 
L 397.128459 398.098395 
L 405.450908 397.913782 
L 412.73305 397.839937 
L 415.853969 397.72917 
L 421.055499 397.655325 
L 428.337642 397.544557 
L 435.619784 397.396867 
L 437.700397 397.43379 
L 441.861621 397.249177 
L 450.18407 397.13841 
L 454.345294 397.064565 
L 456.425906 397.027642 
L 463.708049 396.879952 
L 465.788661 396.879952 
L 473.070803 396.732262 
L 475.151416 396.732262 
L 479.31264 396.69534 
L 488.675395 396.584572 
L 496.997843 396.39996 
L 507.400904 396.289193 
L 512.602435 396.215348 
L 532.36825 396.10458 
L 536.529475 396.067657 
L 537.569781 396.178425 
L 538.610087 396.473805 
L 539.650393 397.027642 
L 540.690699 397.950705 
L 541.731005 399.132225 
L 542.771311 400.53528 
L 544.851923 404.07984 
L 546.932536 408.399772 
L 549.013148 413.273542 
L 560.456515 441.925402 
L 563.577433 449.088367 
L 564.617739 451.414485 
L 564.617739 451.414485 
" clip-path="url(#p6c924376a5)" style="fill: none; stroke: #8c564c; stroke-width: 4; stroke-linecap: square"/>
   </g>
   <g id="line2d_7">
    <path d="M 96.48 531.684 
L 97.520306 531.794767 
L 98.560612 531.647078 
L 99.600918 531.83169 
L 101.68153 531.757845 
L 102.721837 531.868612 
L 103.762143 531.757845 
L 104.802449 531.905535 
L 106.883061 531.83169 
L 107.923367 531.942457 
L 108.963673 531.868612 
L 110.003979 532.016302 
L 112.084591 531.942457 
L 113.124897 532.053225 
L 114.165203 531.97938 
L 115.20551 532.12707 
L 116.245816 531.97938 
L 118.326428 532.12707 
L 119.366734 532.053225 
L 120.40704 532.200915 
L 125.60857 532.12707 
L 128.729489 531.130162 
L 130.810101 529.837875 
L 133.931019 526.588695 
L 136.011631 523.893352 
L 139.13255 518.871892 
L 143.293774 511.118167 
L 148.495304 499.93065 
L 150.575917 494.946112 
L 153.696835 487.52469 
L 171.382038 442.553085 
L 173.46265 437.383935 
L 179.704487 422.09802 
L 183.865711 412.239712 
L 188.026936 402.639862 
L 192.18816 393.520005 
L 195.309078 386.80011 
L 201.550915 373.95108 
L 207.792751 361.951267 
L 216.1152 347.0715 
L 220.276424 340.093147 
L 222.357037 336.770122 
L 226.518261 330.271762 
L 232.760097 321.041137 
L 234.84071 318.198105 
L 239.001934 312.475117 
L 247.324383 301.989127 
L 254.606525 293.570797 
L 260.848362 286.850902 
L 271.251423 276.62337 
L 281.654483 267.540435 
L 286.856014 263.368192 
L 288.936626 261.817447 
L 293.09785 258.679035 
L 298.299381 255.06063 
L 301.420299 252.919125 
L 312.863666 245.682315 
L 315.984584 243.910035 
L 319.105503 242.137755 
L 324.307033 239.294722 
L 329.508563 236.636302 
L 333.669788 234.642487 
L 335.7504 233.571735 
L 341.992237 230.802548 
L 346.153461 228.956422 
L 367.999889 220.538093 
L 372.161113 219.098115 
L 376.322337 217.69506 
L 382.564174 215.848935 
L 384.644786 215.147407 
L 388.80601 214.039732 
L 390.886623 213.375127 
L 398.168765 211.455157 
L 401.289683 210.679785 
L 413.773357 207.689062 
L 415.853969 207.20907 
L 438.740703 202.446067 
L 466.828967 197.572297 
L 490.756007 194.249273 
L 493.876925 193.91697 
L 503.23968 192.698528 
L 535.489169 189.33858 
L 536.529475 189.33858 
L 538.610087 189.080122 
L 541.731005 188.89551 
L 543.811617 189.117045 
L 545.89223 189.892417 
L 546.932536 190.5201 
L 547.972842 191.295473 
L 550.053454 193.252365 
L 552.134066 195.68925 
L 555.254984 200.11995 
L 558.375903 205.178332 
L 562.537127 212.599755 
L 564.617739 216.550462 
L 564.617739 216.550462 
" clip-path="url(#p6c924376a5)" style="fill: none; stroke: #e377c3; stroke-width: 4; stroke-linecap: square"/>
   </g>
   <g id="line2d_8">
    <path d="M 96.48 531.684 
L 123.527958 532.607062 
L 124.568264 532.459372 
L 125.60857 532.053225 
L 126.648877 531.24093 
L 127.689183 529.985565 
L 128.729489 528.213285 
L 129.769795 525.92409 
L 130.810101 523.228747 
L 131.850407 519.979567 
L 133.931019 512.115075 
L 136.011631 502.810605 
L 138.092243 492.324615 
L 140.172856 481.02633 
L 143.293774 462.823537 
L 153.696835 400.461435 
L 157.858059 377.34795 
L 160.978977 361.323585 
L 164.099896 346.48074 
L 167.220814 332.89326 
L 170.341732 320.376532 
L 172.422344 312.65973 
L 175.543263 301.952205 
L 178.664181 292.204665 
L 181.785099 283.380187 
L 184.906017 275.368005 
L 186.98663 270.383467 
L 190.107548 263.47896 
L 193.228466 257.165212 
L 197.38969 249.559177 
L 200.510609 244.390027 
L 203.631527 239.590103 
L 207.792751 233.830192 
L 210.91367 229.879485 
L 215.074894 225.005715 
L 217.155506 222.71652 
L 222.357037 217.510447 
L 227.558567 212.858212 
L 232.760097 208.722893 
L 235.881016 206.396775 
L 241.082546 202.77837 
L 250.445301 197.16615 
L 265.009586 190.040107 
L 273.332035 186.606315 
L 279.573871 184.280197 
L 286.856014 181.80639 
L 297.259075 178.594132 
L 305.581523 176.34186 
L 318.065197 173.351137 
L 332.629482 170.360415 
L 356.556522 166.225095 
L 378.40295 163.234373 
L 384.644786 162.459 
L 388.80601 161.979007 
L 421.055499 158.655982 
L 432.498866 157.73292 
L 437.700397 157.28985 
L 449.143763 156.366787 
L 453.304988 156.034485 
L 456.425906 155.81295 
L 488.675395 153.634522 
L 494.917231 153.30222 
L 504.279986 152.748382 
L 510.521823 152.41608 
L 516.763659 152.083777 
L 526.126414 151.640708 
L 531.327944 151.38225 
L 541.731005 151.049947 
L 543.811617 151.345327 
L 545.89223 152.046855 
L 546.932536 152.489925 
L 549.013148 153.74529 
L 551.09376 155.332957 
L 554.214678 158.249835 
L 556.29529 160.465185 
L 560.456515 165.338955 
L 564.617739 170.655795 
L 564.617739 170.655795 
" clip-path="url(#p6c924376a5)" style="fill: none; stroke: #7f7f7f; stroke-width: 4; stroke-linecap: square"/>
   </g>
   <g id="line2d_9">
    <path d="M 96.48 531.684 
L 103.762143 531.794767 
L 111.044285 531.942457 
L 123.527958 531.83169 
L 124.568264 531.53631 
L 125.60857 531.09324 
L 126.648877 530.428635 
L 127.689183 529.505572 
L 128.729489 528.360975 
L 129.769795 526.81023 
L 130.810101 524.89026 
L 131.850407 522.564143 
L 132.890713 519.758033 
L 133.931019 516.545775 
L 136.011631 508.902817 
L 138.092243 500.004495 
L 141.213162 485.087805 
L 146.414692 458.540527 
L 150.575917 437.716237 
L 153.696835 422.98416 
L 156.817753 409.212067 
L 159.938671 396.54765 
L 163.05959 384.953985 
L 166.180508 374.357227 
L 169.301426 364.609687 
L 172.422344 355.600597 
L 175.543263 347.256112 
L 178.664181 339.465465 
L 180.744793 334.591695 
L 183.865711 327.687187 
L 188.026936 319.195012 
L 191.147854 313.287412 
L 194.268772 307.749037 
L 197.38969 302.542965 
L 199.470303 299.256863 
L 203.631527 293.090805 
L 207.792751 287.367818 
L 212.994282 280.869457 
L 217.155506 276.106455 
L 221.31673 271.675755 
L 226.518261 266.617372 
L 233.800403 260.303625 
L 235.881016 258.60519 
L 241.082546 254.654482 
L 247.324383 250.33455 
L 253.566219 246.457687 
L 261.888668 241.842375 
L 266.049892 239.70087 
L 279.573871 233.571735 
L 283.735096 231.910222 
L 289.976932 229.547182 
L 295.178463 227.774902 
L 300.379993 226.039545 
L 307.662136 223.861117 
L 311.82336 222.642675 
L 317.02489 221.23962 
L 319.105503 220.64886 
L 334.710094 216.882765 
L 355.516216 212.562832 
L 380.483562 208.2429 
L 408.571826 204.366037 
L 457.466212 199.270732 
L 463.708049 198.716895 
L 470.990191 198.05229 
L 477.232028 197.498452 
L 481.393252 197.129227 
L 484.51417 196.907692 
L 501.159068 195.615405 
L 505.320292 195.283102 
L 540.690699 192.88314 
L 542.771311 192.993907 
L 544.851923 193.363132 
L 546.932536 194.027738 
L 549.013148 195.09849 
L 551.09376 196.538467 
L 553.174372 198.421515 
L 555.254984 200.673788 
L 557.335597 203.184517 
L 560.456515 207.50445 
L 564.617739 213.965887 
L 564.617739 213.965887 
" clip-path="url(#p6c924376a5)" style="fill: none; stroke: #bcbd21; stroke-width: 4; stroke-linecap: square"/>
   </g>
   <g id="line2d_10">
    <path d="M 96.48 531.684 
L 102.721837 531.794767 
L 111.044285 531.905535 
L 115.20551 531.97938 
L 118.326428 531.97938 
L 123.527958 531.97938 
L 124.568264 531.757845 
L 125.60857 531.204007 
L 126.648877 530.096333 
L 127.689183 528.250207 
L 128.729489 525.554865 
L 129.769795 521.973382 
L 130.810101 517.579605 
L 131.850407 512.373533 
L 133.931019 500.299875 
L 137.051937 479.660197 
L 142.253468 444.657667 
L 144.33408 431.365567 
L 147.454998 413.08893 
L 150.575917 396.658417 
L 153.696835 381.77865 
L 156.817753 368.48655 
L 159.938671 356.745195 
L 163.05959 346.259205 
L 166.180508 336.954735 
L 169.301426 328.499482 
L 172.422344 320.893447 
L 176.583569 311.847435 
L 178.664181 307.712115 
L 181.785099 301.989127 
L 184.906017 296.819977 
L 189.067242 290.50623 
L 191.147854 287.589353 
L 195.309078 282.23559 
L 197.38969 279.761782 
L 200.510609 276.1803 
L 205.712139 270.789615 
L 211.953976 264.95586 
L 218.195812 259.712865 
L 220.276424 258.125197 
L 225.477955 254.359102 
L 228.598873 252.25452 
L 232.760097 249.559177 
L 236.921322 247.011525 
L 247.324383 241.214692 
L 251.485607 239.11011 
L 263.96928 233.424045 
L 283.735096 225.81801 
L 287.89632 224.378032 
L 293.09785 222.642675 
L 302.460605 219.76272 
L 317.02489 215.738167 
L 332.629482 211.972072 
L 339.911624 210.31056 
L 344.072849 209.387497 
L 353.435603 207.467527 
L 355.516216 207.135225 
L 357.596828 206.692155 
L 387.765704 201.44916 
L 389.846317 201.15378 
L 394.007541 200.489175 
L 397.128459 200.046105 
L 418.974887 197.01846 
L 422.095805 196.686157 
L 429.377948 195.800017 
L 435.619784 195.024645 
L 454.345294 192.920062 
L 458.506518 192.44007 
L 463.708049 191.960077 
L 477.232028 190.630867 
L 479.31264 190.483178 
L 488.675395 189.597037 
L 496.997843 188.89551 
L 502.199374 188.45244 
L 511.562129 187.677067 
L 515.723353 187.344765 
L 540.690699 185.64633 
L 542.771311 185.867865 
L 543.811617 186.200168 
L 544.851923 186.754005 
L 545.89223 187.492455 
L 546.932536 188.489362 
L 549.013148 191.000092 
L 551.09376 194.249273 
L 553.174372 197.9046 
L 556.29529 203.996812 
L 560.456515 212.858212 
L 564.617739 222.12576 
L 564.617739 222.12576 
" clip-path="url(#p6c924376a5)" style="fill: none; stroke: #15becf; stroke-width: 4; stroke-linecap: square"/>
   </g>
   <g id="line2d_11">
    <path d="M 117.286122 531.684 
L 117.286122 59.076 
" clip-path="url(#p6c924376a5)" style="fill: none; stroke-dasharray: 6,6; stroke-dashoffset: 0; stroke: #000000"/>
   </g>
   <g id="line2d_12">
    <path d="M 533.408557 531.684 
L 533.408557 59.076 
" clip-path="url(#p6c924376a5)" style="fill: none; stroke-dasharray: 6,6; stroke-dashoffset: 0; stroke: #000000"/>
   </g>
   <g id="patch_3">
    <path d="M 96.48 531.684 
L 96.48 59.076 
" style="fill: none; stroke: #000000; stroke-linejoin: miter; stroke-linecap: square"/>
   </g>
   <g id="patch_4">
    <path d="M 694.656 531.684 
L 694.656 59.076 
" style="fill: none; stroke: #000000; stroke-linejoin: miter; stroke-linecap: square"/>
   </g>
   <g id="patch_5">
    <path d="M 96.48 531.684 
L 694.656 531.684 
" style="fill: none; stroke: #000000; stroke-linejoin: miter; stroke-linecap: square"/>
   </g>
   <g id="patch_6">
    <path d="M 96.48 59.076 
L 694.656 59.076 
" style="fill: none; stroke: #000000; stroke-linejoin: miter; stroke-linecap: square"/>
   </g>
   <g id="matplotlib.axis_1">
    <g id="xtick_1">
     <g id="line2d_13">
      <defs>
       <path id="m4ca320d109" d="M 0 0 
L 0 -4 
" style="stroke: #000000; stroke-width: 0.5"/>
      </defs>
      <g>
       <use xlink:href="#m4ca320d109" x="96.48" y="531.684" style="stroke: #000000; stroke-width: 0.5"/>
      </g>
     </g>
     <g id="line2d_14">
      <defs>
       <path id="m3513276e10" d="M 0 0 
L 0 4 
" style="stroke: #000000; stroke-width: 0.5"/>
      </defs>
      <g>
       <use xlink:href="#m3513276e10" x="96.48" y="59.076" style="stroke: #000000; stroke-width: 0.5"/>
      </g>
     </g>
     <g id="text_1">
      <!-- 0 -->
      <g transform="translate(88.694688 555.725875) scale(0.28 -0.28)">
       <defs>
        <path id="ArialMT-30" d="M 266 2259 
Q 266 3072 433 3567 
Q 600 4063 929 4331 
Q 1259 4600 1759 4600 
Q 2128 4600 2406 4451 
Q 2684 4303 2865 4023 
Q 3047 3744 3150 3342 
Q 3253 2941 3253 2259 
Q 3253 1453 3087 958 
Q 2922 463 2592 192 
Q 2263 -78 1759 -78 
Q 1097 -78 719 397 
Q 266 969 266 2259 
z
M 844 2259 
Q 844 1131 1108 757 
Q 1372 384 1759 384 
Q 2147 384 2411 759 
Q 2675 1134 2675 2259 
Q 2675 3391 2411 3762 
Q 2147 4134 1753 4134 
Q 1366 4134 1134 3806 
Q 844 3388 844 2259 
z
" transform="scale(0.015625)"/>
       </defs>
       <use xlink:href="#ArialMT-30"/>
      </g>
     </g>
    </g>
    <g id="xtick_2">
     <g id="line2d_15">
      <g>
       <use xlink:href="#m4ca320d109" x="200.510609" y="531.684" style="stroke: #000000; stroke-width: 0.5"/>
      </g>
     </g>
     <g id="line2d_16">
      <g>
       <use xlink:href="#m3513276e10" x="200.510609" y="59.076" style="stroke: #000000; stroke-width: 0.5"/>
      </g>
     </g>
     <g id="text_2">
      <!-- 10 -->
      <g transform="translate(184.939984 555.725875) scale(0.28 -0.28)">
       <defs>
        <path id="ArialMT-31" d="M 2384 0 
L 1822 0 
L 1822 3584 
Q 1619 3391 1289 3197 
Q 959 3003 697 2906 
L 697 3450 
Q 1169 3672 1522 3987 
Q 1875 4303 2022 4600 
L 2384 4600 
L 2384 0 
z
" transform="scale(0.015625)"/>
       </defs>
       <use xlink:href="#ArialMT-31"/>
       <use xlink:href="#ArialMT-30" x="55.615234"/>
      </g>
     </g>
    </g>
    <g id="xtick_3">
     <g id="line2d_17">
      <g>
       <use xlink:href="#m4ca320d109" x="304.541217" y="531.684" style="stroke: #000000; stroke-width: 0.5"/>
      </g>
     </g>
     <g id="line2d_18">
      <g>
       <use xlink:href="#m3513276e10" x="304.541217" y="59.076" style="stroke: #000000; stroke-width: 0.5"/>
      </g>
     </g>
     <g id="text_3">
      <!-- 20 -->
      <g transform="translate(288.970592 555.725875) scale(0.28 -0.28)">
       <defs>
        <path id="ArialMT-32" d="M 3222 541 
L 3222 0 
L 194 0 
Q 188 203 259 391 
Q 375 700 629 1000 
Q 884 1300 1366 1694 
Q 2113 2306 2375 2664 
Q 2638 3022 2638 3341 
Q 2638 3675 2398 3904 
Q 2159 4134 1775 4134 
Q 1369 4134 1125 3890 
Q 881 3647 878 3216 
L 300 3275 
Q 359 3922 746 4261 
Q 1134 4600 1788 4600 
Q 2447 4600 2831 4234 
Q 3216 3869 3216 3328 
Q 3216 3053 3103 2787 
Q 2991 2522 2730 2228 
Q 2469 1934 1863 1422 
Q 1356 997 1212 845 
Q 1069 694 975 541 
L 3222 541 
z
" transform="scale(0.015625)"/>
       </defs>
       <use xlink:href="#ArialMT-32"/>
       <use xlink:href="#ArialMT-30" x="55.615234"/>
      </g>
     </g>
    </g>
    <g id="xtick_4">
     <g id="line2d_19">
      <g>
       <use xlink:href="#m4ca320d109" x="408.571826" y="531.684" style="stroke: #000000; stroke-width: 0.5"/>
      </g>
     </g>
     <g id="line2d_20">
      <g>
       <use xlink:href="#m3513276e10" x="408.571826" y="59.076" style="stroke: #000000; stroke-width: 0.5"/>
      </g>
     </g>
     <g id="text_4">
      <!-- 30 -->
      <g transform="translate(393.001201 555.725875) scale(0.28 -0.28)">
       <defs>
        <path id="ArialMT-33" d="M 269 1209 
L 831 1284 
Q 928 806 1161 595 
Q 1394 384 1728 384 
Q 2125 384 2398 659 
Q 2672 934 2672 1341 
Q 2672 1728 2419 1979 
Q 2166 2231 1775 2231 
Q 1616 2231 1378 2169 
L 1441 2663 
Q 1497 2656 1531 2656 
Q 1891 2656 2178 2843 
Q 2466 3031 2466 3422 
Q 2466 3731 2256 3934 
Q 2047 4138 1716 4138 
Q 1388 4138 1169 3931 
Q 950 3725 888 3313 
L 325 3413 
Q 428 3978 793 4289 
Q 1159 4600 1703 4600 
Q 2078 4600 2393 4439 
Q 2709 4278 2876 4000 
Q 3044 3722 3044 3409 
Q 3044 3113 2884 2869 
Q 2725 2625 2413 2481 
Q 2819 2388 3044 2092 
Q 3269 1797 3269 1353 
Q 3269 753 2831 336 
Q 2394 -81 1725 -81 
Q 1122 -81 723 278 
Q 325 638 269 1209 
z
" transform="scale(0.015625)"/>
       </defs>
       <use xlink:href="#ArialMT-33"/>
       <use xlink:href="#ArialMT-30" x="55.615234"/>
      </g>
     </g>
    </g>
    <g id="xtick_5">
     <g id="line2d_21">
      <g>
       <use xlink:href="#m4ca320d109" x="512.602435" y="531.684" style="stroke: #000000; stroke-width: 0.5"/>
      </g>
     </g>
     <g id="line2d_22">
      <g>
       <use xlink:href="#m3513276e10" x="512.602435" y="59.076" style="stroke: #000000; stroke-width: 0.5"/>
      </g>
     </g>
     <g id="text_5">
      <!-- 40 -->
      <g transform="translate(497.03181 555.725875) scale(0.28 -0.28)">
       <defs>
        <path id="ArialMT-34" d="M 2069 0 
L 2069 1097 
L 81 1097 
L 81 1613 
L 2172 4581 
L 2631 4581 
L 2631 1613 
L 3250 1613 
L 3250 1097 
L 2631 1097 
L 2631 0 
L 2069 0 
z
M 2069 1613 
L 2069 3678 
L 634 1613 
L 2069 1613 
z
" transform="scale(0.015625)"/>
       </defs>
       <use xlink:href="#ArialMT-34"/>
       <use xlink:href="#ArialMT-30" x="55.615234"/>
      </g>
     </g>
    </g>
    <g id="xtick_6">
     <g id="line2d_23">
      <g>
       <use xlink:href="#m4ca320d109" x="616.633043" y="531.684" style="stroke: #000000; stroke-width: 0.5"/>
      </g>
     </g>
     <g id="line2d_24">
      <g>
       <use xlink:href="#m3513276e10" x="616.633043" y="59.076" style="stroke: #000000; stroke-width: 0.5"/>
      </g>
     </g>
     <g id="text_6">
      <!-- 50 -->
      <g transform="translate(601.062418 555.725875) scale(0.28 -0.28)">
       <defs>
        <path id="ArialMT-35" d="M 266 1200 
L 856 1250 
Q 922 819 1161 601 
Q 1400 384 1738 384 
Q 2144 384 2425 690 
Q 2706 997 2706 1503 
Q 2706 1984 2436 2262 
Q 2166 2541 1728 2541 
Q 1456 2541 1237 2417 
Q 1019 2294 894 2097 
L 366 2166 
L 809 4519 
L 3088 4519 
L 3088 3981 
L 1259 3981 
L 1013 2750 
Q 1425 3038 1878 3038 
Q 2478 3038 2890 2622 
Q 3303 2206 3303 1553 
Q 3303 931 2941 478 
Q 2500 -78 1738 -78 
Q 1113 -78 717 272 
Q 322 622 266 1200 
z
" transform="scale(0.015625)"/>
       </defs>
       <use xlink:href="#ArialMT-35"/>
       <use xlink:href="#ArialMT-30" x="55.615234"/>
      </g>
     </g>
    </g>
    <g id="text_7">
     <!-- Waktu (detik) -->
     <g transform="translate(308.210188 586.674) scale(0.28 -0.28)">
      <defs>
       <path id="Arial-BoldMT-57" d="M 1116 0 
L 22 4581 
L 969 4581 
L 1659 1434 
L 2497 4581 
L 3597 4581 
L 4400 1381 
L 5103 4581 
L 6034 4581 
L 4922 0 
L 3941 0 
L 3028 3425 
L 2119 0 
L 1116 0 
z
" transform="scale(0.015625)"/>
       <path id="Arial-BoldMT-61" d="M 1116 2306 
L 319 2450 
Q 453 2931 781 3162 
Q 1109 3394 1756 3394 
Q 2344 3394 2631 3255 
Q 2919 3116 3036 2902 
Q 3153 2688 3153 2116 
L 3144 1091 
Q 3144 653 3186 445 
Q 3228 238 3344 0 
L 2475 0 
Q 2441 88 2391 259 
Q 2369 338 2359 363 
Q 2134 144 1878 34 
Q 1622 -75 1331 -75 
Q 819 -75 523 203 
Q 228 481 228 906 
Q 228 1188 362 1408 
Q 497 1628 739 1745 
Q 981 1863 1438 1950 
Q 2053 2066 2291 2166 
L 2291 2253 
Q 2291 2506 2166 2614 
Q 2041 2722 1694 2722 
Q 1459 2722 1328 2630 
Q 1197 2538 1116 2306 
z
M 2291 1594 
Q 2122 1538 1756 1459 
Q 1391 1381 1278 1306 
Q 1106 1184 1106 997 
Q 1106 813 1243 678 
Q 1381 544 1594 544 
Q 1831 544 2047 700 
Q 2206 819 2256 991 
Q 2291 1103 2291 1419 
L 2291 1594 
z
" transform="scale(0.015625)"/>
       <path id="Arial-BoldMT-6b" d="M 428 0 
L 428 4581 
L 1306 4581 
L 1306 2150 
L 2334 3319 
L 3416 3319 
L 2281 2106 
L 3497 0 
L 2550 0 
L 1716 1491 
L 1306 1063 
L 1306 0 
L 428 0 
z
" transform="scale(0.015625)"/>
       <path id="Arial-BoldMT-74" d="M 1981 3319 
L 1981 2619 
L 1381 2619 
L 1381 1281 
Q 1381 875 1398 808 
Q 1416 741 1477 697 
Q 1538 653 1625 653 
Q 1747 653 1978 738 
L 2053 56 
Q 1747 -75 1359 -75 
Q 1122 -75 931 4 
Q 741 84 652 211 
Q 563 338 528 553 
Q 500 706 500 1172 
L 500 2619 
L 97 2619 
L 97 3319 
L 500 3319 
L 500 3978 
L 1381 4491 
L 1381 3319 
L 1981 3319 
z
" transform="scale(0.015625)"/>
       <path id="Arial-BoldMT-75" d="M 2644 0 
L 2644 497 
Q 2463 231 2167 78 
Q 1872 -75 1544 -75 
Q 1209 -75 943 72 
Q 678 219 559 484 
Q 441 750 441 1219 
L 441 3319 
L 1319 3319 
L 1319 1794 
Q 1319 1094 1367 936 
Q 1416 778 1544 686 
Q 1672 594 1869 594 
Q 2094 594 2272 717 
Q 2450 841 2515 1023 
Q 2581 1206 2581 1919 
L 2581 3319 
L 3459 3319 
L 3459 0 
L 2644 0 
z
" transform="scale(0.015625)"/>
       <path id="Arial-BoldMT-20" transform="scale(0.015625)"/>
       <path id="Arial-BoldMT-28" d="M 1916 -1347 
L 1313 -1347 
Q 834 -625 584 153 
Q 334 931 334 1659 
Q 334 2563 644 3369 
Q 913 4069 1325 4659 
L 1925 4659 
Q 1497 3713 1336 3048 
Q 1175 2384 1175 1641 
Q 1175 1128 1270 590 
Q 1366 53 1531 -431 
Q 1641 -750 1916 -1347 
z
" transform="scale(0.015625)"/>
       <path id="Arial-BoldMT-64" d="M 3503 0 
L 2688 0 
L 2688 488 
Q 2484 203 2207 64 
Q 1931 -75 1650 -75 
Q 1078 -75 670 386 
Q 263 847 263 1672 
Q 263 2516 659 2955 
Q 1056 3394 1663 3394 
Q 2219 3394 2625 2931 
L 2625 4581 
L 3503 4581 
L 3503 0 
z
M 1159 1731 
Q 1159 1200 1306 963 
Q 1519 619 1900 619 
Q 2203 619 2415 876 
Q 2628 1134 2628 1647 
Q 2628 2219 2422 2470 
Q 2216 2722 1894 2722 
Q 1581 2722 1370 2473 
Q 1159 2225 1159 1731 
z
" transform="scale(0.015625)"/>
       <path id="Arial-BoldMT-65" d="M 2381 1056 
L 3256 909 
Q 3088 428 2723 176 
Q 2359 -75 1813 -75 
Q 947 -75 531 491 
Q 203 944 203 1634 
Q 203 2459 634 2926 
Q 1066 3394 1725 3394 
Q 2466 3394 2894 2905 
Q 3322 2416 3303 1406 
L 1103 1406 
Q 1113 1016 1316 798 
Q 1519 581 1822 581 
Q 2028 581 2168 693 
Q 2309 806 2381 1056 
z
M 2431 1944 
Q 2422 2325 2234 2523 
Q 2047 2722 1778 2722 
Q 1491 2722 1303 2513 
Q 1116 2303 1119 1944 
L 2431 1944 
z
" transform="scale(0.015625)"/>
       <path id="Arial-BoldMT-69" d="M 459 3769 
L 459 4581 
L 1338 4581 
L 1338 3769 
L 459 3769 
z
M 459 0 
L 459 3319 
L 1338 3319 
L 1338 0 
L 459 0 
z
" transform="scale(0.015625)"/>
       <path id="Arial-BoldMT-29" d="M 216 -1347 
Q 475 -791 581 -494 
Q 688 -197 778 190 
Q 869 578 912 926 
Q 956 1275 956 1641 
Q 956 2384 797 3048 
Q 638 3713 209 4659 
L 806 4659 
Q 1278 3988 1539 3234 
Q 1800 2481 1800 1706 
Q 1800 1053 1594 306 
Q 1359 -531 822 -1347 
L 216 -1347 
z
" transform="scale(0.015625)"/>
      </defs>
      <use xlink:href="#Arial-BoldMT-57"/>
      <use xlink:href="#Arial-BoldMT-61" x="90.634766"/>
      <use xlink:href="#Arial-BoldMT-6b" x="146.25"/>
      <use xlink:href="#Arial-BoldMT-74" x="201.865234"/>
      <use xlink:href="#Arial-BoldMT-75" x="235.166016"/>
      <use xlink:href="#Arial-BoldMT-20" x="296.25"/>
      <use xlink:href="#Arial-BoldMT-28" x="324.033203"/>
      <use xlink:href="#Arial-BoldMT-64" x="357.333984"/>
      <use xlink:href="#Arial-BoldMT-65" x="418.417969"/>
      <use xlink:href="#Arial-BoldMT-74" x="474.033203"/>
      <use xlink:href="#Arial-BoldMT-69" x="507.333984"/>
      <use xlink:href="#Arial-BoldMT-6b" x="535.117188"/>
      <use xlink:href="#Arial-BoldMT-29" x="590.732422"/>
     </g>
    </g>
   </g>
   <g id="matplotlib.axis_2">
    <g id="ytick_1">
     <g id="line2d_25">
      <defs>
       <path id="m73bb08ec99" d="M 0 0 
L 4 0 
" style="stroke: #000000; stroke-width: 0.5"/>
      </defs>
      <g>
       <use xlink:href="#m73bb08ec99" x="96.48" y="531.684" style="stroke: #000000; stroke-width: 0.5"/>
      </g>
     </g>
     <g id="line2d_26">
      <defs>
       <path id="m2e042efe05" d="M 0 0 
L -4 0 
" style="stroke: #000000; stroke-width: 0.5"/>
      </defs>
      <g>
       <use xlink:href="#m2e042efe05" x="694.656" y="531.684" style="stroke: #000000; stroke-width: 0.5"/>
      </g>
     </g>
     <g id="text_8">
      <!-- 0.0 -->
      <g transform="translate(53.56 538.922438) scale(0.28 -0.28)">
       <defs>
        <path id="ArialMT-2e" d="M 581 0 
L 581 641 
L 1222 641 
L 1222 0 
L 581 0 
z
" transform="scale(0.015625)"/>
       </defs>
       <use xlink:href="#ArialMT-30"/>
       <use xlink:href="#ArialMT-2e" x="55.615234"/>
       <use xlink:href="#ArialMT-30" x="83.398438"/>
      </g>
     </g>
    </g>
    <g id="ytick_2">
     <g id="line2d_27">
      <g>
       <use xlink:href="#m73bb08ec99" x="96.48" y="472.608" style="stroke: #000000; stroke-width: 0.5"/>
      </g>
     </g>
     <g id="line2d_28">
      <g>
       <use xlink:href="#m2e042efe05" x="694.656" y="472.608" style="stroke: #000000; stroke-width: 0.5"/>
      </g>
     </g>
     <g id="text_9">
      <!-- 0.2 -->
      <g transform="translate(53.56 479.846437) scale(0.28 -0.28)">
       <use xlink:href="#ArialMT-30"/>
       <use xlink:href="#ArialMT-2e" x="55.615234"/>
       <use xlink:href="#ArialMT-32" x="83.398438"/>
      </g>
     </g>
    </g>
    <g id="ytick_3">
     <g id="line2d_29">
      <g>
       <use xlink:href="#m73bb08ec99" x="96.48" y="413.532" style="stroke: #000000; stroke-width: 0.5"/>
      </g>
     </g>
     <g id="line2d_30">
      <g>
       <use xlink:href="#m2e042efe05" x="694.656" y="413.532" style="stroke: #000000; stroke-width: 0.5"/>
      </g>
     </g>
     <g id="text_10">
      <!-- 0.4 -->
      <g transform="translate(53.56 420.770438) scale(0.28 -0.28)">
       <use xlink:href="#ArialMT-30"/>
       <use xlink:href="#ArialMT-2e" x="55.615234"/>
       <use xlink:href="#ArialMT-34" x="83.398438"/>
      </g>
     </g>
    </g>
    <g id="ytick_4">
     <g id="line2d_31">
      <g>
       <use xlink:href="#m73bb08ec99" x="96.48" y="354.456" style="stroke: #000000; stroke-width: 0.5"/>
      </g>
     </g>
     <g id="line2d_32">
      <g>
       <use xlink:href="#m2e042efe05" x="694.656" y="354.456" style="stroke: #000000; stroke-width: 0.5"/>
      </g>
     </g>
     <g id="text_11">
      <!-- 0.6 -->
      <g transform="translate(53.56 361.694437) scale(0.28 -0.28)">
       <defs>
        <path id="ArialMT-36" d="M 3184 3459 
L 2625 3416 
Q 2550 3747 2413 3897 
Q 2184 4138 1850 4138 
Q 1581 4138 1378 3988 
Q 1113 3794 959 3422 
Q 806 3050 800 2363 
Q 1003 2672 1297 2822 
Q 1591 2972 1913 2972 
Q 2475 2972 2870 2558 
Q 3266 2144 3266 1488 
Q 3266 1056 3080 686 
Q 2894 316 2569 119 
Q 2244 -78 1831 -78 
Q 1128 -78 684 439 
Q 241 956 241 2144 
Q 241 3472 731 4075 
Q 1159 4600 1884 4600 
Q 2425 4600 2770 4297 
Q 3116 3994 3184 3459 
z
M 888 1484 
Q 888 1194 1011 928 
Q 1134 663 1356 523 
Q 1578 384 1822 384 
Q 2178 384 2434 671 
Q 2691 959 2691 1453 
Q 2691 1928 2437 2201 
Q 2184 2475 1800 2475 
Q 1419 2475 1153 2201 
Q 888 1928 888 1484 
z
" transform="scale(0.015625)"/>
       </defs>
       <use xlink:href="#ArialMT-30"/>
       <use xlink:href="#ArialMT-2e" x="55.615234"/>
       <use xlink:href="#ArialMT-36" x="83.398438"/>
      </g>
     </g>
    </g>
    <g id="ytick_5">
     <g id="line2d_33">
      <g>
       <use xlink:href="#m73bb08ec99" x="96.48" y="295.38" style="stroke: #000000; stroke-width: 0.5"/>
      </g>
     </g>
     <g id="line2d_34">
      <g>
       <use xlink:href="#m2e042efe05" x="694.656" y="295.38" style="stroke: #000000; stroke-width: 0.5"/>
      </g>
     </g>
     <g id="text_12">
      <!-- 0.8 -->
      <g transform="translate(53.56 302.618437) scale(0.28 -0.28)">
       <defs>
        <path id="ArialMT-38" d="M 1131 2484 
Q 781 2613 612 2850 
Q 444 3088 444 3419 
Q 444 3919 803 4259 
Q 1163 4600 1759 4600 
Q 2359 4600 2725 4251 
Q 3091 3903 3091 3403 
Q 3091 3084 2923 2848 
Q 2756 2613 2416 2484 
Q 2838 2347 3058 2040 
Q 3278 1734 3278 1309 
Q 3278 722 2862 322 
Q 2447 -78 1769 -78 
Q 1091 -78 675 323 
Q 259 725 259 1325 
Q 259 1772 486 2073 
Q 713 2375 1131 2484 
z
M 1019 3438 
Q 1019 3113 1228 2906 
Q 1438 2700 1772 2700 
Q 2097 2700 2305 2904 
Q 2513 3109 2513 3406 
Q 2513 3716 2298 3927 
Q 2084 4138 1766 4138 
Q 1444 4138 1231 3931 
Q 1019 3725 1019 3438 
z
M 838 1322 
Q 838 1081 952 856 
Q 1066 631 1291 507 
Q 1516 384 1775 384 
Q 2178 384 2440 643 
Q 2703 903 2703 1303 
Q 2703 1709 2433 1975 
Q 2163 2241 1756 2241 
Q 1359 2241 1098 1978 
Q 838 1716 838 1322 
z
" transform="scale(0.015625)"/>
       </defs>
       <use xlink:href="#ArialMT-30"/>
       <use xlink:href="#ArialMT-2e" x="55.615234"/>
       <use xlink:href="#ArialMT-38" x="83.398438"/>
      </g>
     </g>
    </g>
    <g id="ytick_6">
     <g id="line2d_35">
      <g>
       <use xlink:href="#m73bb08ec99" x="96.48" y="236.304" style="stroke: #000000; stroke-width: 0.5"/>
      </g>
     </g>
     <g id="line2d_36">
      <g>
       <use xlink:href="#m2e042efe05" x="694.656" y="236.304" style="stroke: #000000; stroke-width: 0.5"/>
      </g>
     </g>
     <g id="text_13">
      <!-- 1.0 -->
      <g transform="translate(53.56 243.542438) scale(0.28 -0.28)">
       <use xlink:href="#ArialMT-31"/>
       <use xlink:href="#ArialMT-2e" x="55.615234"/>
       <use xlink:href="#ArialMT-30" x="83.398438"/>
      </g>
     </g>
    </g>
    <g id="ytick_7">
     <g id="line2d_37">
      <g>
       <use xlink:href="#m73bb08ec99" x="96.48" y="177.228" style="stroke: #000000; stroke-width: 0.5"/>
      </g>
     </g>
     <g id="line2d_38">
      <g>
       <use xlink:href="#m2e042efe05" x="694.656" y="177.228" style="stroke: #000000; stroke-width: 0.5"/>
      </g>
     </g>
     <g id="text_14">
      <!-- 1.2 -->
      <g transform="translate(53.56 184.466437) scale(0.28 -0.28)">
       <use xlink:href="#ArialMT-31"/>
       <use xlink:href="#ArialMT-2e" x="55.615234"/>
       <use xlink:href="#ArialMT-32" x="83.398438"/>
      </g>
     </g>
    </g>
    <g id="ytick_8">
     <g id="line2d_39">
      <g>
       <use xlink:href="#m73bb08ec99" x="96.48" y="118.152" style="stroke: #000000; stroke-width: 0.5"/>
      </g>
     </g>
     <g id="line2d_40">
      <g>
       <use xlink:href="#m2e042efe05" x="694.656" y="118.152" style="stroke: #000000; stroke-width: 0.5"/>
      </g>
     </g>
     <g id="text_15">
      <!-- 1.4 -->
      <g transform="translate(53.56 125.390437) scale(0.28 -0.28)">
       <use xlink:href="#ArialMT-31"/>
       <use xlink:href="#ArialMT-2e" x="55.615234"/>
       <use xlink:href="#ArialMT-34" x="83.398438"/>
      </g>
     </g>
    </g>
    <g id="ytick_9">
     <g id="line2d_41">
      <g>
       <use xlink:href="#m73bb08ec99" x="96.48" y="59.076" style="stroke: #000000; stroke-width: 0.5"/>
      </g>
     </g>
     <g id="line2d_42">
      <g>
       <use xlink:href="#m2e042efe05" x="694.656" y="59.076" style="stroke: #000000; stroke-width: 0.5"/>
      </g>
     </g>
     <g id="text_16">
      <!-- 1.6 -->
      <g transform="translate(53.56 66.314438) scale(0.28 -0.28)">
       <use xlink:href="#ArialMT-31"/>
       <use xlink:href="#ArialMT-2e" x="55.615234"/>
       <use xlink:href="#ArialMT-36" x="83.398438"/>
      </g>
     </g>
    </g>
    <g id="text_17">
     <!-- Respon sensor (V) -->
     <g transform="translate(42.666875 419.06125) rotate(-90) scale(0.28 -0.28)">
      <defs>
       <path id="Arial-BoldMT-52" d="M 469 0 
L 469 4581 
L 2416 4581 
Q 3150 4581 3483 4457 
Q 3816 4334 4016 4018 
Q 4216 3703 4216 3297 
Q 4216 2781 3912 2445 
Q 3609 2109 3006 2022 
Q 3306 1847 3501 1637 
Q 3697 1428 4028 894 
L 4588 0 
L 3481 0 
L 2813 997 
Q 2456 1531 2325 1670 
Q 2194 1809 2047 1861 
Q 1900 1913 1581 1913 
L 1394 1913 
L 1394 0 
L 469 0 
z
M 1394 2644 
L 2078 2644 
Q 2744 2644 2909 2700 
Q 3075 2756 3169 2893 
Q 3263 3031 3263 3238 
Q 3263 3469 3139 3611 
Q 3016 3753 2791 3791 
Q 2678 3806 2116 3806 
L 1394 3806 
L 1394 2644 
z
" transform="scale(0.015625)"/>
       <path id="Arial-BoldMT-73" d="M 150 947 
L 1031 1081 
Q 1088 825 1259 692 
Q 1431 559 1741 559 
Q 2081 559 2253 684 
Q 2369 772 2369 919 
Q 2369 1019 2306 1084 
Q 2241 1147 2013 1200 
Q 950 1434 666 1628 
Q 272 1897 272 2375 
Q 272 2806 612 3100 
Q 953 3394 1669 3394 
Q 2350 3394 2681 3172 
Q 3013 2950 3138 2516 
L 2309 2363 
Q 2256 2556 2107 2659 
Q 1959 2763 1684 2763 
Q 1338 2763 1188 2666 
Q 1088 2597 1088 2488 
Q 1088 2394 1175 2328 
Q 1294 2241 1995 2081 
Q 2697 1922 2975 1691 
Q 3250 1456 3250 1038 
Q 3250 581 2869 253 
Q 2488 -75 1741 -75 
Q 1063 -75 667 200 
Q 272 475 150 947 
z
" transform="scale(0.015625)"/>
       <path id="Arial-BoldMT-70" d="M 434 3319 
L 1253 3319 
L 1253 2831 
Q 1413 3081 1684 3237 
Q 1956 3394 2288 3394 
Q 2866 3394 3269 2941 
Q 3672 2488 3672 1678 
Q 3672 847 3265 386 
Q 2859 -75 2281 -75 
Q 2006 -75 1782 34 
Q 1559 144 1313 409 
L 1313 -1263 
L 434 -1263 
L 434 3319 
z
M 1303 1716 
Q 1303 1156 1525 889 
Q 1747 622 2066 622 
Q 2372 622 2575 867 
Q 2778 1113 2778 1672 
Q 2778 2194 2568 2447 
Q 2359 2700 2050 2700 
Q 1728 2700 1515 2451 
Q 1303 2203 1303 1716 
z
" transform="scale(0.015625)"/>
       <path id="Arial-BoldMT-6f" d="M 256 1706 
Q 256 2144 472 2553 
Q 688 2963 1083 3178 
Q 1478 3394 1966 3394 
Q 2719 3394 3200 2905 
Q 3681 2416 3681 1669 
Q 3681 916 3195 420 
Q 2709 -75 1972 -75 
Q 1516 -75 1102 131 
Q 688 338 472 736 
Q 256 1134 256 1706 
z
M 1156 1659 
Q 1156 1166 1390 903 
Q 1625 641 1969 641 
Q 2313 641 2545 903 
Q 2778 1166 2778 1666 
Q 2778 2153 2545 2415 
Q 2313 2678 1969 2678 
Q 1625 2678 1390 2415 
Q 1156 2153 1156 1659 
z
" transform="scale(0.015625)"/>
       <path id="Arial-BoldMT-6e" d="M 3478 0 
L 2600 0 
L 2600 1694 
Q 2600 2231 2544 2389 
Q 2488 2547 2361 2634 
Q 2234 2722 2056 2722 
Q 1828 2722 1647 2597 
Q 1466 2472 1398 2265 
Q 1331 2059 1331 1503 
L 1331 0 
L 453 0 
L 453 3319 
L 1269 3319 
L 1269 2831 
Q 1703 3394 2363 3394 
Q 2653 3394 2893 3289 
Q 3134 3184 3257 3021 
Q 3381 2859 3429 2653 
Q 3478 2447 3478 2063 
L 3478 0 
z
" transform="scale(0.015625)"/>
       <path id="Arial-BoldMT-72" d="M 1300 0 
L 422 0 
L 422 3319 
L 1238 3319 
L 1238 2847 
Q 1447 3181 1614 3287 
Q 1781 3394 1994 3394 
Q 2294 3394 2572 3228 
L 2300 2463 
Q 2078 2606 1888 2606 
Q 1703 2606 1575 2504 
Q 1447 2403 1373 2137 
Q 1300 1872 1300 1025 
L 1300 0 
z
" transform="scale(0.015625)"/>
       <path id="Arial-BoldMT-56" d="M 1634 0 
L -3 4581 
L 1000 4581 
L 2159 1191 
L 3281 4581 
L 4263 4581 
L 2622 0 
L 1634 0 
z
" transform="scale(0.015625)"/>
      </defs>
      <use xlink:href="#Arial-BoldMT-52"/>
      <use xlink:href="#Arial-BoldMT-65" x="72.216797"/>
      <use xlink:href="#Arial-BoldMT-73" x="127.832031"/>
      <use xlink:href="#Arial-BoldMT-70" x="183.447266"/>
      <use xlink:href="#Arial-BoldMT-6f" x="244.53125"/>
      <use xlink:href="#Arial-BoldMT-6e" x="305.615234"/>
      <use xlink:href="#Arial-BoldMT-20" x="366.699219"/>
      <use xlink:href="#Arial-BoldMT-73" x="394.482422"/>
      <use xlink:href="#Arial-BoldMT-65" x="450.097656"/>
      <use xlink:href="#Arial-BoldMT-6e" x="505.712891"/>
      <use xlink:href="#Arial-BoldMT-73" x="566.796875"/>
      <use xlink:href="#Arial-BoldMT-6f" x="622.412109"/>
      <use xlink:href="#Arial-BoldMT-72" x="683.496094"/>
      <use xlink:href="#Arial-BoldMT-20" x="722.412109"/>
      <use xlink:href="#Arial-BoldMT-28" x="750.195312"/>
      <use xlink:href="#Arial-BoldMT-56" x="783.496094"/>
      <use xlink:href="#Arial-BoldMT-29" x="850.195312"/>
     </g>
    </g>
   </g>
   <g id="legend_1">
    <g id="patch_7">
     <path d="M 558.35475 468.72375 
L 677.856 468.72375 
Q 682.656 468.72375 682.656 463.92375 
L 682.656 126.83625 
Q 682.656 122.03625 677.856 122.03625 
L 558.35475 122.03625 
Q 553.55475 122.03625 553.55475 126.83625 
L 553.55475 463.92375 
Q 553.55475 468.72375 558.35475 468.72375 
z
" style="fill: #ffffff; stroke: #000000; stroke-linejoin: miter"/>
    </g>
    <g id="line2d_43">
     <path d="M 570.35475 140.415 
L 603.95475 140.415 
" style="fill: none; stroke: #1f77b4; stroke-width: 4; stroke-linecap: square"/>
    </g>
    <g id="text_18">
     <!-- S1 -->
     <g transform="translate(630.35475 148.815) scale(0.24 -0.24)">
      <defs>
       <path id="ArialMT-53" d="M 288 1472 
L 859 1522 
Q 900 1178 1048 958 
Q 1197 738 1509 602 
Q 1822 466 2213 466 
Q 2559 466 2825 569 
Q 3091 672 3220 851 
Q 3350 1031 3350 1244 
Q 3350 1459 3225 1620 
Q 3100 1781 2813 1891 
Q 2628 1963 1997 2114 
Q 1366 2266 1113 2400 
Q 784 2572 623 2826 
Q 463 3081 463 3397 
Q 463 3744 659 4045 
Q 856 4347 1234 4503 
Q 1613 4659 2075 4659 
Q 2584 4659 2973 4495 
Q 3363 4331 3572 4012 
Q 3781 3694 3797 3291 
L 3216 3247 
Q 3169 3681 2898 3903 
Q 2628 4125 2100 4125 
Q 1550 4125 1298 3923 
Q 1047 3722 1047 3438 
Q 1047 3191 1225 3031 
Q 1400 2872 2139 2705 
Q 2878 2538 3153 2413 
Q 3553 2228 3743 1945 
Q 3934 1663 3934 1294 
Q 3934 928 3725 604 
Q 3516 281 3123 101 
Q 2731 -78 2241 -78 
Q 1619 -78 1198 103 
Q 778 284 539 648 
Q 300 1013 288 1472 
z
" transform="scale(0.015625)"/>
      </defs>
      <use xlink:href="#ArialMT-53"/>
      <use xlink:href="#ArialMT-31" x="66.699219"/>
     </g>
    </g>
    <g id="line2d_44">
     <path d="M 570.35475 174.36375 
L 603.95475 174.36375 
" style="fill: none; stroke: #ff7f0f; stroke-width: 4; stroke-linecap: square"/>
    </g>
    <g id="text_19">
     <!-- S2 -->
     <g transform="translate(630.35475 182.76375) scale(0.24 -0.24)">
      <use xlink:href="#ArialMT-53"/>
      <use xlink:href="#ArialMT-32" x="66.699219"/>
     </g>
    </g>
    <g id="line2d_45">
     <path d="M 570.35475 208.3125 
L 603.95475 208.3125 
" style="fill: none; stroke: #2ba02b; stroke-width: 4; stroke-linecap: square"/>
    </g>
    <g id="text_20">
     <!-- S3 -->
     <g transform="translate(630.35475 216.7125) scale(0.24 -0.24)">
      <use xlink:href="#ArialMT-53"/>
      <use xlink:href="#ArialMT-33" x="66.699219"/>
     </g>
    </g>
    <g id="line2d_46">
     <path d="M 570.35475 242.26125 
L 603.95475 242.26125 
" style="fill: none; stroke: #d62727; stroke-width: 4; stroke-linecap: square"/>
    </g>
    <g id="text_21">
     <!-- S4 -->
     <g transform="translate(630.35475 250.66125) scale(0.24 -0.24)">
      <use xlink:href="#ArialMT-53"/>
      <use xlink:href="#ArialMT-34" x="66.699219"/>
     </g>
    </g>
    <g id="line2d_47">
     <path d="M 570.35475 276.21 
L 603.95475 276.21 
" style="fill: none; stroke: #9467bd; stroke-width: 4; stroke-linecap: square"/>
    </g>
    <g id="text_22">
     <!-- S5 -->
     <g transform="translate(630.35475 284.61) scale(0.24 -0.24)">
      <use xlink:href="#ArialMT-53"/>
      <use xlink:href="#ArialMT-35" x="66.699219"/>
     </g>
    </g>
    <g id="line2d_48">
     <path d="M 570.35475 310.15875 
L 603.95475 310.15875 
" style="fill: none; stroke: #8c564c; stroke-width: 4; stroke-linecap: square"/>
    </g>
    <g id="text_23">
     <!-- S6 -->
     <g transform="translate(630.35475 318.55875) scale(0.24 -0.24)">
      <use xlink:href="#ArialMT-53"/>
      <use xlink:href="#ArialMT-36" x="66.699219"/>
     </g>
    </g>
    <g id="line2d_49">
     <path d="M 570.35475 344.1075 
L 603.95475 344.1075 
" style="fill: none; stroke: #e377c3; stroke-width: 4; stroke-linecap: square"/>
    </g>
    <g id="text_24">
     <!-- S7 -->
     <g transform="translate(630.35475 352.5075) scale(0.24 -0.24)">
      <defs>
       <path id="ArialMT-37" d="M 303 3981 
L 303 4522 
L 3269 4522 
L 3269 4084 
Q 2831 3619 2401 2847 
Q 1972 2075 1738 1259 
Q 1569 684 1522 0 
L 944 0 
Q 953 541 1156 1306 
Q 1359 2072 1739 2783 
Q 2119 3494 2547 3981 
L 303 3981 
z
" transform="scale(0.015625)"/>
      </defs>
      <use xlink:href="#ArialMT-53"/>
      <use xlink:href="#ArialMT-37" x="66.699219"/>
     </g>
    </g>
    <g id="line2d_50">
     <path d="M 570.35475 378.05625 
L 603.95475 378.05625 
" style="fill: none; stroke: #7f7f7f; stroke-width: 4; stroke-linecap: square"/>
    </g>
    <g id="text_25">
     <!-- S8 -->
     <g transform="translate(630.35475 386.45625) scale(0.24 -0.24)">
      <use xlink:href="#ArialMT-53"/>
      <use xlink:href="#ArialMT-38" x="66.699219"/>
     </g>
    </g>
    <g id="line2d_51">
     <path d="M 570.35475 412.005 
L 603.95475 412.005 
" style="fill: none; stroke: #bcbd21; stroke-width: 4; stroke-linecap: square"/>
    </g>
    <g id="text_26">
     <!-- S9 -->
     <g transform="translate(630.35475 420.405) scale(0.24 -0.24)">
      <defs>
       <path id="ArialMT-39" d="M 350 1059 
L 891 1109 
Q 959 728 1153 556 
Q 1347 384 1650 384 
Q 1909 384 2104 503 
Q 2300 622 2425 820 
Q 2550 1019 2634 1356 
Q 2719 1694 2719 2044 
Q 2719 2081 2716 2156 
Q 2547 1888 2255 1720 
Q 1963 1553 1622 1553 
Q 1053 1553 659 1965 
Q 266 2378 266 3053 
Q 266 3750 677 4175 
Q 1088 4600 1706 4600 
Q 2153 4600 2523 4359 
Q 2894 4119 3086 3673 
Q 3278 3228 3278 2384 
Q 3278 1506 3087 986 
Q 2897 466 2520 194 
Q 2144 -78 1638 -78 
Q 1100 -78 759 220 
Q 419 519 350 1059 
z
M 2653 3081 
Q 2653 3566 2395 3850 
Q 2138 4134 1775 4134 
Q 1400 4134 1122 3828 
Q 844 3522 844 3034 
Q 844 2597 1108 2323 
Q 1372 2050 1759 2050 
Q 2150 2050 2401 2323 
Q 2653 2597 2653 3081 
z
" transform="scale(0.015625)"/>
      </defs>
      <use xlink:href="#ArialMT-53"/>
      <use xlink:href="#ArialMT-39" x="66.699219"/>
     </g>
    </g>
    <g id="line2d_52">
     <path d="M 570.35475 445.95375 
L 603.95475 445.95375 
" style="fill: none; stroke: #15becf; stroke-width: 4; stroke-linecap: square"/>
    </g>
    <g id="text_27">
     <!-- S10 -->
     <g transform="translate(630.35475 454.35375) scale(0.24 -0.24)">
      <use xlink:href="#ArialMT-53"/>
      <use xlink:href="#ArialMT-31" x="66.699219"/>
      <use xlink:href="#ArialMT-30" x="122.314453"/>
     </g>
    </g>
   </g>
  </g>
 </g>
 <defs>
  <clipPath id="p6c924376a5">
   <rect x="96.48" y="59.076" width="598.176" height="472.608"/>
  </clipPath>
 </defs>
</svg>
